G04 #@! TF.GenerationSoftware,KiCad,Pcbnew,5.1.0-060a0da~80~ubuntu16.04.1*
G04 #@! TF.CreationDate,2019-04-04T16:50:19+05:30*
G04 #@! TF.ProjectId,555_Badge,3535355f-4261-4646-9765-2e6b69636164,v01*
G04 #@! TF.SameCoordinates,Original*
G04 #@! TF.FileFunction,Copper,L2,Bot*
G04 #@! TF.FilePolarity,Positive*
%FSLAX46Y46*%
G04 Gerber Fmt 4.6, Leading zero omitted, Abs format (unit mm)*
G04 Created by KiCad (PCBNEW 5.1.0-060a0da~80~ubuntu16.04.1) date 2019-04-04 16:50:19*
%MOMM*%
%LPD*%
G04 APERTURE LIST*
%ADD10C,0.300000*%
%ADD11R,2.170000X2.170000*%
%ADD12C,2.500000*%
%ADD13R,1.600000X1.600000*%
%ADD14C,1.600000*%
%ADD15R,1.800000X1.800000*%
%ADD16C,1.800000*%
%ADD17O,1.000000X1.500000*%
%ADD18R,1.000000X1.500000*%
%ADD19O,1.600000X1.600000*%
%ADD20R,1.900000X1.900000*%
%ADD21C,1.900000*%
%ADD22C,1.524000*%
%ADD23C,0.254000*%
G04 APERTURE END LIST*
D10*
X179331714Y-124138571D02*
X178974571Y-125138571D01*
X178617428Y-124138571D01*
X177760285Y-123638571D02*
X177617428Y-123638571D01*
X177474571Y-123710000D01*
X177403142Y-123781428D01*
X177331714Y-123924285D01*
X177260285Y-124210000D01*
X177260285Y-124567142D01*
X177331714Y-124852857D01*
X177403142Y-124995714D01*
X177474571Y-125067142D01*
X177617428Y-125138571D01*
X177760285Y-125138571D01*
X177903142Y-125067142D01*
X177974571Y-124995714D01*
X178046000Y-124852857D01*
X178117428Y-124567142D01*
X178117428Y-124210000D01*
X178046000Y-123924285D01*
X177974571Y-123781428D01*
X177903142Y-123710000D01*
X177760285Y-123638571D01*
X175831714Y-125138571D02*
X176688857Y-125138571D01*
X176260285Y-125138571D02*
X176260285Y-123638571D01*
X176403142Y-123852857D01*
X176546000Y-123995714D01*
X176688857Y-124067142D01*
D11*
X140716000Y-97028000D03*
D12*
X140716000Y-117028000D03*
D13*
X170688000Y-109220000D03*
D14*
X168188000Y-109220000D03*
D15*
X177800000Y-106387001D03*
D16*
X175260000Y-106387001D03*
X175260000Y-112268000D03*
D15*
X177800000Y-112268000D03*
D17*
X169926000Y-121412000D03*
X171196000Y-121412000D03*
D18*
X168656000Y-121412000D03*
D14*
X143257001Y-121447001D03*
D19*
X150877001Y-121447001D03*
X164084000Y-106680000D03*
D14*
X156464000Y-106680000D03*
X168237001Y-96012000D03*
D19*
X175857001Y-96012000D03*
X164084000Y-111252000D03*
D14*
X156464000Y-111252000D03*
X164084000Y-121447001D03*
D19*
X156464000Y-121447001D03*
X164084000Y-115777001D03*
D14*
X156464000Y-115777001D03*
X168237001Y-101092000D03*
D19*
X175857001Y-101092000D03*
D20*
X138176000Y-121920000D03*
D21*
X135676000Y-121920000D03*
X133176000Y-121920000D03*
D22*
X155702000Y-101854000D03*
X158242000Y-101854000D03*
X160782000Y-101854000D03*
X163322000Y-101854000D03*
X163322000Y-94234000D03*
X160782000Y-94234000D03*
X158242000Y-94234000D03*
X155702000Y-94234000D03*
D23*
X167678000Y-113284000D02*
X170688000Y-110274000D01*
X170688000Y-110274000D02*
X170688000Y-109220000D01*
X158496000Y-113284000D02*
X167678000Y-113284000D01*
X156464000Y-111252000D02*
X158496000Y-113284000D01*
X165215370Y-115777001D02*
X165422371Y-115570000D01*
X164084000Y-115777001D02*
X165215370Y-115777001D01*
X164084000Y-115777001D02*
X167940999Y-115777001D01*
X167940999Y-115777001D02*
X172974000Y-110744000D01*
X172974000Y-108673001D02*
X175260000Y-106387001D01*
X172974000Y-110744000D02*
X172974000Y-108673001D01*
X144388371Y-121447001D02*
X144423372Y-121412000D01*
X143257001Y-121447001D02*
X144388371Y-121447001D01*
X144423372Y-121412000D02*
X145542000Y-121412000D01*
X151176999Y-115777001D02*
X156464000Y-115777001D01*
X145542000Y-121412000D02*
X151176999Y-115777001D01*
X162752370Y-98806000D02*
X173063001Y-98806000D01*
X173063001Y-98806000D02*
X175857001Y-96012000D01*
X160782000Y-100776370D02*
X162752370Y-98806000D01*
X160782000Y-101854000D02*
X160782000Y-100776370D01*
G36*
X180200300Y-122670000D02*
G01*
X174761000Y-122670000D01*
X174761000Y-126352300D01*
X127647700Y-126352300D01*
X127647700Y-121763891D01*
X131591000Y-121763891D01*
X131591000Y-122076109D01*
X131651911Y-122382327D01*
X131771391Y-122670779D01*
X131944850Y-122930379D01*
X132165621Y-123151150D01*
X132425221Y-123324609D01*
X132713673Y-123444089D01*
X133019891Y-123505000D01*
X133332109Y-123505000D01*
X133638327Y-123444089D01*
X133926779Y-123324609D01*
X134186379Y-123151150D01*
X134407150Y-122930379D01*
X134426000Y-122902168D01*
X134444850Y-122930379D01*
X134665621Y-123151150D01*
X134925221Y-123324609D01*
X135213673Y-123444089D01*
X135519891Y-123505000D01*
X135832109Y-123505000D01*
X136138327Y-123444089D01*
X136426779Y-123324609D01*
X136664186Y-123165979D01*
X136695463Y-123224494D01*
X136774815Y-123321185D01*
X136871506Y-123400537D01*
X136981820Y-123459502D01*
X137101518Y-123495812D01*
X137226000Y-123508072D01*
X139126000Y-123508072D01*
X139250482Y-123495812D01*
X139370180Y-123459502D01*
X139480494Y-123400537D01*
X139577185Y-123321185D01*
X139656537Y-123224494D01*
X139715502Y-123114180D01*
X139751812Y-122994482D01*
X139764072Y-122870000D01*
X139764072Y-121305666D01*
X141822001Y-121305666D01*
X141822001Y-121588336D01*
X141877148Y-121865575D01*
X141985321Y-122126728D01*
X142142364Y-122361760D01*
X142342242Y-122561638D01*
X142577274Y-122718681D01*
X142838427Y-122826854D01*
X143115666Y-122882001D01*
X143398336Y-122882001D01*
X143675575Y-122826854D01*
X143936728Y-122718681D01*
X144171760Y-122561638D01*
X144371638Y-122361760D01*
X144477083Y-122203950D01*
X144537749Y-122197975D01*
X144616784Y-122174000D01*
X145504577Y-122174000D01*
X145542000Y-122177686D01*
X145579423Y-122174000D01*
X145579426Y-122174000D01*
X145691378Y-122162974D01*
X145835015Y-122119402D01*
X145967392Y-122048645D01*
X146083422Y-121953422D01*
X146107284Y-121924346D01*
X146584629Y-121447001D01*
X149435058Y-121447001D01*
X149462765Y-121728310D01*
X149544819Y-121998809D01*
X149678069Y-122248102D01*
X149857393Y-122466609D01*
X150075900Y-122645933D01*
X150325193Y-122779183D01*
X150595692Y-122861237D01*
X150806509Y-122882001D01*
X150947493Y-122882001D01*
X151158310Y-122861237D01*
X151428809Y-122779183D01*
X151678102Y-122645933D01*
X151896609Y-122466609D01*
X152075933Y-122248102D01*
X152209183Y-121998809D01*
X152291237Y-121728310D01*
X152318944Y-121447001D01*
X155022057Y-121447001D01*
X155049764Y-121728310D01*
X155131818Y-121998809D01*
X155265068Y-122248102D01*
X155444392Y-122466609D01*
X155662899Y-122645933D01*
X155912192Y-122779183D01*
X156182691Y-122861237D01*
X156393508Y-122882001D01*
X156534492Y-122882001D01*
X156745309Y-122861237D01*
X157015808Y-122779183D01*
X157265101Y-122645933D01*
X157483608Y-122466609D01*
X157662932Y-122248102D01*
X157796182Y-121998809D01*
X157878236Y-121728310D01*
X157905943Y-121447001D01*
X157892023Y-121305666D01*
X162649000Y-121305666D01*
X162649000Y-121588336D01*
X162704147Y-121865575D01*
X162812320Y-122126728D01*
X162969363Y-122361760D01*
X163169241Y-122561638D01*
X163404273Y-122718681D01*
X163665426Y-122826854D01*
X163942665Y-122882001D01*
X164225335Y-122882001D01*
X164502574Y-122826854D01*
X164763727Y-122718681D01*
X164998759Y-122561638D01*
X165198637Y-122361760D01*
X165332112Y-122162000D01*
X167517928Y-122162000D01*
X167530188Y-122286482D01*
X167566498Y-122406180D01*
X167625463Y-122516494D01*
X167704815Y-122613185D01*
X167801506Y-122692537D01*
X167911820Y-122751502D01*
X168031518Y-122787812D01*
X168156000Y-122800072D01*
X168370250Y-122797000D01*
X168529000Y-122638250D01*
X168529000Y-121539000D01*
X167679750Y-121539000D01*
X167521000Y-121697750D01*
X167517928Y-122162000D01*
X165332112Y-122162000D01*
X165355680Y-122126728D01*
X165463853Y-121865575D01*
X165519000Y-121588336D01*
X165519000Y-121305666D01*
X165463853Y-121028427D01*
X165355680Y-120767274D01*
X165285339Y-120662000D01*
X167517928Y-120662000D01*
X167521000Y-121126250D01*
X167679750Y-121285000D01*
X168529000Y-121285000D01*
X168529000Y-120185750D01*
X168783000Y-120185750D01*
X168783000Y-121285000D01*
X168791000Y-121285000D01*
X168791000Y-121539000D01*
X168783000Y-121539000D01*
X168783000Y-122638250D01*
X168941750Y-122797000D01*
X169156000Y-122800072D01*
X169280482Y-122787812D01*
X169400180Y-122751502D01*
X169478379Y-122709703D01*
X169489553Y-122715676D01*
X169703501Y-122780577D01*
X169926000Y-122802491D01*
X170148498Y-122780577D01*
X170362446Y-122715676D01*
X170559623Y-122610284D01*
X170561000Y-122609154D01*
X170562377Y-122610284D01*
X170759553Y-122715676D01*
X170973501Y-122780577D01*
X171196000Y-122802491D01*
X171418498Y-122780577D01*
X171632446Y-122715676D01*
X171829623Y-122610284D01*
X172002449Y-122468449D01*
X172144284Y-122295623D01*
X172249676Y-122098447D01*
X172314577Y-121884499D01*
X172331000Y-121717752D01*
X172331000Y-121106249D01*
X172314577Y-120939502D01*
X172249676Y-120725554D01*
X172144284Y-120528377D01*
X172002449Y-120355551D01*
X171829623Y-120213716D01*
X171632447Y-120108324D01*
X171418499Y-120043423D01*
X171196000Y-120021509D01*
X170973502Y-120043423D01*
X170759554Y-120108324D01*
X170562378Y-120213716D01*
X170561000Y-120214846D01*
X170559623Y-120213716D01*
X170362447Y-120108324D01*
X170148499Y-120043423D01*
X169926000Y-120021509D01*
X169703502Y-120043423D01*
X169489554Y-120108324D01*
X169478379Y-120114297D01*
X169400180Y-120072498D01*
X169280482Y-120036188D01*
X169156000Y-120023928D01*
X168941750Y-120027000D01*
X168783000Y-120185750D01*
X168529000Y-120185750D01*
X168370250Y-120027000D01*
X168156000Y-120023928D01*
X168031518Y-120036188D01*
X167911820Y-120072498D01*
X167801506Y-120131463D01*
X167704815Y-120210815D01*
X167625463Y-120307506D01*
X167566498Y-120417820D01*
X167530188Y-120537518D01*
X167517928Y-120662000D01*
X165285339Y-120662000D01*
X165198637Y-120532242D01*
X164998759Y-120332364D01*
X164763727Y-120175321D01*
X164502574Y-120067148D01*
X164225335Y-120012001D01*
X163942665Y-120012001D01*
X163665426Y-120067148D01*
X163404273Y-120175321D01*
X163169241Y-120332364D01*
X162969363Y-120532242D01*
X162812320Y-120767274D01*
X162704147Y-121028427D01*
X162649000Y-121305666D01*
X157892023Y-121305666D01*
X157878236Y-121165692D01*
X157796182Y-120895193D01*
X157662932Y-120645900D01*
X157483608Y-120427393D01*
X157265101Y-120248069D01*
X157015808Y-120114819D01*
X156745309Y-120032765D01*
X156534492Y-120012001D01*
X156393508Y-120012001D01*
X156182691Y-120032765D01*
X155912192Y-120114819D01*
X155662899Y-120248069D01*
X155444392Y-120427393D01*
X155265068Y-120645900D01*
X155131818Y-120895193D01*
X155049764Y-121165692D01*
X155022057Y-121447001D01*
X152318944Y-121447001D01*
X152291237Y-121165692D01*
X152209183Y-120895193D01*
X152075933Y-120645900D01*
X151896609Y-120427393D01*
X151678102Y-120248069D01*
X151428809Y-120114819D01*
X151158310Y-120032765D01*
X150947493Y-120012001D01*
X150806509Y-120012001D01*
X150595692Y-120032765D01*
X150325193Y-120114819D01*
X150075900Y-120248069D01*
X149857393Y-120427393D01*
X149678069Y-120645900D01*
X149544819Y-120895193D01*
X149462765Y-121165692D01*
X149435058Y-121447001D01*
X146584629Y-121447001D01*
X151492630Y-116539001D01*
X155247293Y-116539001D01*
X155349363Y-116691760D01*
X155549241Y-116891638D01*
X155784273Y-117048681D01*
X156045426Y-117156854D01*
X156322665Y-117212001D01*
X156605335Y-117212001D01*
X156882574Y-117156854D01*
X157143727Y-117048681D01*
X157378759Y-116891638D01*
X157578637Y-116691760D01*
X157735680Y-116456728D01*
X157843853Y-116195575D01*
X157899000Y-115918336D01*
X157899000Y-115777001D01*
X162642057Y-115777001D01*
X162669764Y-116058310D01*
X162751818Y-116328809D01*
X162885068Y-116578102D01*
X163064392Y-116796609D01*
X163282899Y-116975933D01*
X163532192Y-117109183D01*
X163802691Y-117191237D01*
X164013508Y-117212001D01*
X164154492Y-117212001D01*
X164365309Y-117191237D01*
X164635808Y-117109183D01*
X164885101Y-116975933D01*
X165103608Y-116796609D01*
X165282932Y-116578102D01*
X165303832Y-116539001D01*
X167903576Y-116539001D01*
X167940999Y-116542687D01*
X167978422Y-116539001D01*
X167978425Y-116539001D01*
X168090377Y-116527975D01*
X168234014Y-116484403D01*
X168366391Y-116413646D01*
X168482421Y-116318423D01*
X168506283Y-116289347D01*
X172678814Y-112116816D01*
X173725000Y-112116816D01*
X173725000Y-112419184D01*
X173783989Y-112715743D01*
X173899701Y-112995095D01*
X174067688Y-113246505D01*
X174281495Y-113460312D01*
X174532905Y-113628299D01*
X174812257Y-113744011D01*
X175108816Y-113803000D01*
X175411184Y-113803000D01*
X175707743Y-113744011D01*
X175987095Y-113628299D01*
X176238505Y-113460312D01*
X176304944Y-113393873D01*
X176310498Y-113412180D01*
X176369463Y-113522494D01*
X176448815Y-113619185D01*
X176545506Y-113698537D01*
X176655820Y-113757502D01*
X176775518Y-113793812D01*
X176900000Y-113806072D01*
X178700000Y-113806072D01*
X178824482Y-113793812D01*
X178944180Y-113757502D01*
X179054494Y-113698537D01*
X179151185Y-113619185D01*
X179230537Y-113522494D01*
X179289502Y-113412180D01*
X179325812Y-113292482D01*
X179338072Y-113168000D01*
X179338072Y-111368000D01*
X179325812Y-111243518D01*
X179289502Y-111123820D01*
X179230537Y-111013506D01*
X179151185Y-110916815D01*
X179054494Y-110837463D01*
X178944180Y-110778498D01*
X178824482Y-110742188D01*
X178700000Y-110729928D01*
X176900000Y-110729928D01*
X176775518Y-110742188D01*
X176655820Y-110778498D01*
X176545506Y-110837463D01*
X176448815Y-110916815D01*
X176369463Y-111013506D01*
X176310498Y-111123820D01*
X176304944Y-111142127D01*
X176238505Y-111075688D01*
X175987095Y-110907701D01*
X175707743Y-110791989D01*
X175411184Y-110733000D01*
X175108816Y-110733000D01*
X174812257Y-110791989D01*
X174532905Y-110907701D01*
X174281495Y-111075688D01*
X174067688Y-111289495D01*
X173899701Y-111540905D01*
X173783989Y-111820257D01*
X173725000Y-112116816D01*
X172678814Y-112116816D01*
X173486353Y-111309278D01*
X173515422Y-111285422D01*
X173610645Y-111169392D01*
X173681402Y-111037015D01*
X173724974Y-110893378D01*
X173736000Y-110781426D01*
X173736000Y-110781424D01*
X173739686Y-110744001D01*
X173736000Y-110706578D01*
X173736000Y-108988631D01*
X174853430Y-107871202D01*
X175108816Y-107922001D01*
X175411184Y-107922001D01*
X175707743Y-107863012D01*
X175987095Y-107747300D01*
X176238505Y-107579313D01*
X176304944Y-107512874D01*
X176310498Y-107531181D01*
X176369463Y-107641495D01*
X176448815Y-107738186D01*
X176545506Y-107817538D01*
X176655820Y-107876503D01*
X176775518Y-107912813D01*
X176900000Y-107925073D01*
X178700000Y-107925073D01*
X178824482Y-107912813D01*
X178944180Y-107876503D01*
X179054494Y-107817538D01*
X179151185Y-107738186D01*
X179230537Y-107641495D01*
X179289502Y-107531181D01*
X179325812Y-107411483D01*
X179338072Y-107287001D01*
X179338072Y-105487001D01*
X179325812Y-105362519D01*
X179289502Y-105242821D01*
X179230537Y-105132507D01*
X179151185Y-105035816D01*
X179054494Y-104956464D01*
X178944180Y-104897499D01*
X178824482Y-104861189D01*
X178700000Y-104848929D01*
X176900000Y-104848929D01*
X176775518Y-104861189D01*
X176655820Y-104897499D01*
X176545506Y-104956464D01*
X176448815Y-105035816D01*
X176369463Y-105132507D01*
X176310498Y-105242821D01*
X176304944Y-105261128D01*
X176238505Y-105194689D01*
X175987095Y-105026702D01*
X175707743Y-104910990D01*
X175411184Y-104852001D01*
X175108816Y-104852001D01*
X174812257Y-104910990D01*
X174532905Y-105026702D01*
X174281495Y-105194689D01*
X174067688Y-105408496D01*
X173899701Y-105659906D01*
X173783989Y-105939258D01*
X173725000Y-106235817D01*
X173725000Y-106538185D01*
X173775799Y-106793571D01*
X172461649Y-108107722D01*
X172432579Y-108131579D01*
X172408722Y-108160649D01*
X172408721Y-108160650D01*
X172337355Y-108247609D01*
X172266599Y-108379986D01*
X172223027Y-108523623D01*
X172208314Y-108673001D01*
X172212001Y-108710434D01*
X172212000Y-110428369D01*
X167625369Y-115015001D01*
X165947249Y-115015001D01*
X165847763Y-114933355D01*
X165715387Y-114862599D01*
X165571749Y-114819027D01*
X165422371Y-114804314D01*
X165272992Y-114819027D01*
X165177870Y-114847882D01*
X165103608Y-114757393D01*
X164885101Y-114578069D01*
X164635808Y-114444819D01*
X164365309Y-114362765D01*
X164154492Y-114342001D01*
X164013508Y-114342001D01*
X163802691Y-114362765D01*
X163532192Y-114444819D01*
X163282899Y-114578069D01*
X163064392Y-114757393D01*
X162885068Y-114975900D01*
X162751818Y-115225193D01*
X162669764Y-115495692D01*
X162642057Y-115777001D01*
X157899000Y-115777001D01*
X157899000Y-115635666D01*
X157843853Y-115358427D01*
X157735680Y-115097274D01*
X157578637Y-114862242D01*
X157378759Y-114662364D01*
X157143727Y-114505321D01*
X156882574Y-114397148D01*
X156605335Y-114342001D01*
X156322665Y-114342001D01*
X156045426Y-114397148D01*
X155784273Y-114505321D01*
X155549241Y-114662364D01*
X155349363Y-114862242D01*
X155247293Y-115015001D01*
X151214421Y-115015001D01*
X151176998Y-115011315D01*
X151139575Y-115015001D01*
X151139573Y-115015001D01*
X151027621Y-115026027D01*
X150883984Y-115069599D01*
X150751607Y-115140356D01*
X150635577Y-115235579D01*
X150611720Y-115264649D01*
X145226370Y-120650000D01*
X144460795Y-120650000D01*
X144449583Y-120648896D01*
X144371638Y-120532242D01*
X144171760Y-120332364D01*
X143936728Y-120175321D01*
X143675575Y-120067148D01*
X143398336Y-120012001D01*
X143115666Y-120012001D01*
X142838427Y-120067148D01*
X142577274Y-120175321D01*
X142342242Y-120332364D01*
X142142364Y-120532242D01*
X141985321Y-120767274D01*
X141877148Y-121028427D01*
X141822001Y-121305666D01*
X139764072Y-121305666D01*
X139764072Y-120970000D01*
X139751812Y-120845518D01*
X139715502Y-120725820D01*
X139656537Y-120615506D01*
X139577185Y-120518815D01*
X139480494Y-120439463D01*
X139370180Y-120380498D01*
X139250482Y-120344188D01*
X139126000Y-120331928D01*
X137226000Y-120331928D01*
X137101518Y-120344188D01*
X136981820Y-120380498D01*
X136871506Y-120439463D01*
X136774815Y-120518815D01*
X136695463Y-120615506D01*
X136664186Y-120674021D01*
X136426779Y-120515391D01*
X136138327Y-120395911D01*
X135832109Y-120335000D01*
X135519891Y-120335000D01*
X135213673Y-120395911D01*
X134925221Y-120515391D01*
X134665621Y-120688850D01*
X134444850Y-120909621D01*
X134426000Y-120937832D01*
X134407150Y-120909621D01*
X134186379Y-120688850D01*
X133926779Y-120515391D01*
X133638327Y-120395911D01*
X133332109Y-120335000D01*
X133019891Y-120335000D01*
X132713673Y-120395911D01*
X132425221Y-120515391D01*
X132165621Y-120688850D01*
X131944850Y-120909621D01*
X131771391Y-121169221D01*
X131651911Y-121457673D01*
X131591000Y-121763891D01*
X127647700Y-121763891D01*
X127647700Y-116842344D01*
X138831000Y-116842344D01*
X138831000Y-117213656D01*
X138903439Y-117577834D01*
X139045534Y-117920882D01*
X139251825Y-118229618D01*
X139514382Y-118492175D01*
X139823118Y-118698466D01*
X140166166Y-118840561D01*
X140530344Y-118913000D01*
X140901656Y-118913000D01*
X141265834Y-118840561D01*
X141608882Y-118698466D01*
X141917618Y-118492175D01*
X142180175Y-118229618D01*
X142386466Y-117920882D01*
X142528561Y-117577834D01*
X142601000Y-117213656D01*
X142601000Y-116842344D01*
X142528561Y-116478166D01*
X142386466Y-116135118D01*
X142180175Y-115826382D01*
X141917618Y-115563825D01*
X141608882Y-115357534D01*
X141265834Y-115215439D01*
X140901656Y-115143000D01*
X140530344Y-115143000D01*
X140166166Y-115215439D01*
X139823118Y-115357534D01*
X139514382Y-115563825D01*
X139251825Y-115826382D01*
X139045534Y-116135118D01*
X138903439Y-116478166D01*
X138831000Y-116842344D01*
X127647700Y-116842344D01*
X127647700Y-111110665D01*
X155029000Y-111110665D01*
X155029000Y-111393335D01*
X155084147Y-111670574D01*
X155192320Y-111931727D01*
X155349363Y-112166759D01*
X155549241Y-112366637D01*
X155784273Y-112523680D01*
X156045426Y-112631853D01*
X156322665Y-112687000D01*
X156605335Y-112687000D01*
X156785527Y-112651157D01*
X157930721Y-113796352D01*
X157954578Y-113825422D01*
X157983648Y-113849279D01*
X158070607Y-113920645D01*
X158141364Y-113958465D01*
X158202985Y-113991402D01*
X158346622Y-114034974D01*
X158458574Y-114046000D01*
X158458577Y-114046000D01*
X158496000Y-114049686D01*
X158533423Y-114046000D01*
X167640577Y-114046000D01*
X167678000Y-114049686D01*
X167715423Y-114046000D01*
X167715426Y-114046000D01*
X167827378Y-114034974D01*
X167971015Y-113991402D01*
X168103392Y-113920645D01*
X168219422Y-113825422D01*
X168243284Y-113796346D01*
X171200353Y-110839278D01*
X171229422Y-110815422D01*
X171267591Y-110768913D01*
X171324645Y-110699393D01*
X171346731Y-110658072D01*
X171488000Y-110658072D01*
X171612482Y-110645812D01*
X171732180Y-110609502D01*
X171842494Y-110550537D01*
X171939185Y-110471185D01*
X172018537Y-110374494D01*
X172077502Y-110264180D01*
X172113812Y-110144482D01*
X172126072Y-110020000D01*
X172126072Y-108420000D01*
X172113812Y-108295518D01*
X172077502Y-108175820D01*
X172018537Y-108065506D01*
X171939185Y-107968815D01*
X171842494Y-107889463D01*
X171732180Y-107830498D01*
X171612482Y-107794188D01*
X171488000Y-107781928D01*
X169888000Y-107781928D01*
X169763518Y-107794188D01*
X169643820Y-107830498D01*
X169533506Y-107889463D01*
X169436815Y-107968815D01*
X169357463Y-108065506D01*
X169298498Y-108175820D01*
X169262188Y-108295518D01*
X169249928Y-108420000D01*
X169249928Y-108427215D01*
X169180702Y-108406903D01*
X168367605Y-109220000D01*
X169180702Y-110033097D01*
X169249928Y-110012785D01*
X169249928Y-110020000D01*
X169262188Y-110144482D01*
X169298498Y-110264180D01*
X169357463Y-110374494D01*
X169426163Y-110458206D01*
X167362370Y-112522000D01*
X164743018Y-112522000D01*
X164939131Y-112404385D01*
X165147519Y-112215414D01*
X165315037Y-111989420D01*
X165435246Y-111735087D01*
X165475904Y-111601039D01*
X165353915Y-111379000D01*
X164211000Y-111379000D01*
X164211000Y-111399000D01*
X163957000Y-111399000D01*
X163957000Y-111379000D01*
X162814085Y-111379000D01*
X162692096Y-111601039D01*
X162732754Y-111735087D01*
X162852963Y-111989420D01*
X163020481Y-112215414D01*
X163228869Y-112404385D01*
X163424982Y-112522000D01*
X158811631Y-112522000D01*
X157863157Y-111573527D01*
X157899000Y-111393335D01*
X157899000Y-111110665D01*
X157857685Y-110902961D01*
X162692096Y-110902961D01*
X162814085Y-111125000D01*
X163957000Y-111125000D01*
X163957000Y-109981376D01*
X164211000Y-109981376D01*
X164211000Y-111125000D01*
X165353915Y-111125000D01*
X165475904Y-110902961D01*
X165435246Y-110768913D01*
X165315037Y-110514580D01*
X165147519Y-110288586D01*
X165063838Y-110212702D01*
X167374903Y-110212702D01*
X167446486Y-110456671D01*
X167701996Y-110577571D01*
X167976184Y-110646300D01*
X168258512Y-110660217D01*
X168538130Y-110618787D01*
X168804292Y-110523603D01*
X168929514Y-110456671D01*
X169001097Y-110212702D01*
X168188000Y-109399605D01*
X167374903Y-110212702D01*
X165063838Y-110212702D01*
X164939131Y-110099615D01*
X164697881Y-109954930D01*
X164433040Y-109860091D01*
X164211000Y-109981376D01*
X163957000Y-109981376D01*
X163734960Y-109860091D01*
X163470119Y-109954930D01*
X163228869Y-110099615D01*
X163020481Y-110288586D01*
X162852963Y-110514580D01*
X162732754Y-110768913D01*
X162692096Y-110902961D01*
X157857685Y-110902961D01*
X157843853Y-110833426D01*
X157735680Y-110572273D01*
X157578637Y-110337241D01*
X157378759Y-110137363D01*
X157143727Y-109980320D01*
X156882574Y-109872147D01*
X156605335Y-109817000D01*
X156322665Y-109817000D01*
X156045426Y-109872147D01*
X155784273Y-109980320D01*
X155549241Y-110137363D01*
X155349363Y-110337241D01*
X155192320Y-110572273D01*
X155084147Y-110833426D01*
X155029000Y-111110665D01*
X127647700Y-111110665D01*
X127647700Y-109290512D01*
X166747783Y-109290512D01*
X166789213Y-109570130D01*
X166884397Y-109836292D01*
X166951329Y-109961514D01*
X167195298Y-110033097D01*
X168008395Y-109220000D01*
X167195298Y-108406903D01*
X166951329Y-108478486D01*
X166830429Y-108733996D01*
X166761700Y-109008184D01*
X166747783Y-109290512D01*
X127647700Y-109290512D01*
X127647700Y-108227298D01*
X167374903Y-108227298D01*
X168188000Y-109040395D01*
X169001097Y-108227298D01*
X168929514Y-107983329D01*
X168674004Y-107862429D01*
X168399816Y-107793700D01*
X168117488Y-107779783D01*
X167837870Y-107821213D01*
X167571708Y-107916397D01*
X167446486Y-107983329D01*
X167374903Y-108227298D01*
X127647700Y-108227298D01*
X127647700Y-106538665D01*
X155029000Y-106538665D01*
X155029000Y-106821335D01*
X155084147Y-107098574D01*
X155192320Y-107359727D01*
X155349363Y-107594759D01*
X155549241Y-107794637D01*
X155784273Y-107951680D01*
X156045426Y-108059853D01*
X156322665Y-108115000D01*
X156605335Y-108115000D01*
X156882574Y-108059853D01*
X157143727Y-107951680D01*
X157378759Y-107794637D01*
X157578637Y-107594759D01*
X157735680Y-107359727D01*
X157843853Y-107098574D01*
X157857684Y-107029039D01*
X162692096Y-107029039D01*
X162732754Y-107163087D01*
X162852963Y-107417420D01*
X163020481Y-107643414D01*
X163228869Y-107832385D01*
X163470119Y-107977070D01*
X163734960Y-108071909D01*
X163957000Y-107950624D01*
X163957000Y-106807000D01*
X164211000Y-106807000D01*
X164211000Y-107950624D01*
X164433040Y-108071909D01*
X164697881Y-107977070D01*
X164939131Y-107832385D01*
X165147519Y-107643414D01*
X165315037Y-107417420D01*
X165435246Y-107163087D01*
X165475904Y-107029039D01*
X165353915Y-106807000D01*
X164211000Y-106807000D01*
X163957000Y-106807000D01*
X162814085Y-106807000D01*
X162692096Y-107029039D01*
X157857684Y-107029039D01*
X157899000Y-106821335D01*
X157899000Y-106538665D01*
X157857685Y-106330961D01*
X162692096Y-106330961D01*
X162814085Y-106553000D01*
X163957000Y-106553000D01*
X163957000Y-105409376D01*
X164211000Y-105409376D01*
X164211000Y-106553000D01*
X165353915Y-106553000D01*
X165475904Y-106330961D01*
X165435246Y-106196913D01*
X165315037Y-105942580D01*
X165147519Y-105716586D01*
X164939131Y-105527615D01*
X164697881Y-105382930D01*
X164433040Y-105288091D01*
X164211000Y-105409376D01*
X163957000Y-105409376D01*
X163734960Y-105288091D01*
X163470119Y-105382930D01*
X163228869Y-105527615D01*
X163020481Y-105716586D01*
X162852963Y-105942580D01*
X162732754Y-106196913D01*
X162692096Y-106330961D01*
X157857685Y-106330961D01*
X157843853Y-106261426D01*
X157735680Y-106000273D01*
X157578637Y-105765241D01*
X157378759Y-105565363D01*
X157143727Y-105408320D01*
X156882574Y-105300147D01*
X156605335Y-105245000D01*
X156322665Y-105245000D01*
X156045426Y-105300147D01*
X155784273Y-105408320D01*
X155549241Y-105565363D01*
X155349363Y-105765241D01*
X155192320Y-106000273D01*
X155084147Y-106261426D01*
X155029000Y-106538665D01*
X127647700Y-106538665D01*
X127647700Y-102819565D01*
X154916040Y-102819565D01*
X154983020Y-103059656D01*
X155232048Y-103176756D01*
X155499135Y-103243023D01*
X155774017Y-103255910D01*
X156046133Y-103214922D01*
X156305023Y-103121636D01*
X156420980Y-103059656D01*
X156487960Y-102819565D01*
X157456040Y-102819565D01*
X157523020Y-103059656D01*
X157772048Y-103176756D01*
X158039135Y-103243023D01*
X158314017Y-103255910D01*
X158586133Y-103214922D01*
X158845023Y-103121636D01*
X158960980Y-103059656D01*
X159027960Y-102819565D01*
X158242000Y-102033605D01*
X157456040Y-102819565D01*
X156487960Y-102819565D01*
X155702000Y-102033605D01*
X154916040Y-102819565D01*
X127647700Y-102819565D01*
X127647700Y-101926017D01*
X154300090Y-101926017D01*
X154341078Y-102198133D01*
X154434364Y-102457023D01*
X154496344Y-102572980D01*
X154736435Y-102639960D01*
X155522395Y-101854000D01*
X155881605Y-101854000D01*
X156667565Y-102639960D01*
X156907656Y-102572980D01*
X156969079Y-102442356D01*
X156974364Y-102457023D01*
X157036344Y-102572980D01*
X157276435Y-102639960D01*
X158062395Y-101854000D01*
X158421605Y-101854000D01*
X159207565Y-102639960D01*
X159447656Y-102572980D01*
X159511485Y-102437240D01*
X159543995Y-102515727D01*
X159696880Y-102744535D01*
X159891465Y-102939120D01*
X160120273Y-103092005D01*
X160374510Y-103197314D01*
X160644408Y-103251000D01*
X160919592Y-103251000D01*
X161189490Y-103197314D01*
X161443727Y-103092005D01*
X161672535Y-102939120D01*
X161867120Y-102744535D01*
X162020005Y-102515727D01*
X162052000Y-102438485D01*
X162083995Y-102515727D01*
X162236880Y-102744535D01*
X162431465Y-102939120D01*
X162660273Y-103092005D01*
X162914510Y-103197314D01*
X163184408Y-103251000D01*
X163459592Y-103251000D01*
X163729490Y-103197314D01*
X163983727Y-103092005D01*
X164212535Y-102939120D01*
X164407120Y-102744535D01*
X164560005Y-102515727D01*
X164665314Y-102261490D01*
X164719000Y-101991592D01*
X164719000Y-101716408D01*
X164665314Y-101446510D01*
X164560005Y-101192273D01*
X164407120Y-100963465D01*
X164394320Y-100950665D01*
X166802001Y-100950665D01*
X166802001Y-101233335D01*
X166857148Y-101510574D01*
X166965321Y-101771727D01*
X167122364Y-102006759D01*
X167322242Y-102206637D01*
X167557274Y-102363680D01*
X167818427Y-102471853D01*
X168095666Y-102527000D01*
X168378336Y-102527000D01*
X168655575Y-102471853D01*
X168916728Y-102363680D01*
X169151760Y-102206637D01*
X169351638Y-102006759D01*
X169508681Y-101771727D01*
X169616854Y-101510574D01*
X169672001Y-101233335D01*
X169672001Y-101092000D01*
X174415058Y-101092000D01*
X174442765Y-101373309D01*
X174524819Y-101643808D01*
X174658069Y-101893101D01*
X174837393Y-102111608D01*
X175055900Y-102290932D01*
X175305193Y-102424182D01*
X175575692Y-102506236D01*
X175786509Y-102527000D01*
X175927493Y-102527000D01*
X176138310Y-102506236D01*
X176408809Y-102424182D01*
X176658102Y-102290932D01*
X176876609Y-102111608D01*
X177055933Y-101893101D01*
X177189183Y-101643808D01*
X177271237Y-101373309D01*
X177298944Y-101092000D01*
X177271237Y-100810691D01*
X177189183Y-100540192D01*
X177055933Y-100290899D01*
X176876609Y-100072392D01*
X176658102Y-99893068D01*
X176408809Y-99759818D01*
X176138310Y-99677764D01*
X175927493Y-99657000D01*
X175786509Y-99657000D01*
X175575692Y-99677764D01*
X175305193Y-99759818D01*
X175055900Y-99893068D01*
X174837393Y-100072392D01*
X174658069Y-100290899D01*
X174524819Y-100540192D01*
X174442765Y-100810691D01*
X174415058Y-101092000D01*
X169672001Y-101092000D01*
X169672001Y-100950665D01*
X169616854Y-100673426D01*
X169508681Y-100412273D01*
X169351638Y-100177241D01*
X169151760Y-99977363D01*
X168916728Y-99820320D01*
X168655575Y-99712147D01*
X168378336Y-99657000D01*
X168095666Y-99657000D01*
X167818427Y-99712147D01*
X167557274Y-99820320D01*
X167322242Y-99977363D01*
X167122364Y-100177241D01*
X166965321Y-100412273D01*
X166857148Y-100673426D01*
X166802001Y-100950665D01*
X164394320Y-100950665D01*
X164212535Y-100768880D01*
X163983727Y-100615995D01*
X163729490Y-100510686D01*
X163459592Y-100457000D01*
X163184408Y-100457000D01*
X162914510Y-100510686D01*
X162660273Y-100615995D01*
X162431465Y-100768880D01*
X162236880Y-100963465D01*
X162083995Y-101192273D01*
X162052000Y-101269515D01*
X162020005Y-101192273D01*
X161867120Y-100963465D01*
X161769828Y-100866173D01*
X163068001Y-99568000D01*
X173025578Y-99568000D01*
X173063001Y-99571686D01*
X173100424Y-99568000D01*
X173100427Y-99568000D01*
X173212379Y-99556974D01*
X173356016Y-99513402D01*
X173488393Y-99442645D01*
X173604423Y-99347422D01*
X173628285Y-99318346D01*
X175533265Y-97413366D01*
X175575692Y-97426236D01*
X175786509Y-97447000D01*
X175927493Y-97447000D01*
X176138310Y-97426236D01*
X176408809Y-97344182D01*
X176658102Y-97210932D01*
X176876609Y-97031608D01*
X177055933Y-96813101D01*
X177189183Y-96563808D01*
X177271237Y-96293309D01*
X177298944Y-96012000D01*
X177271237Y-95730691D01*
X177189183Y-95460192D01*
X177055933Y-95210899D01*
X176876609Y-94992392D01*
X176658102Y-94813068D01*
X176408809Y-94679818D01*
X176138310Y-94597764D01*
X175927493Y-94577000D01*
X175786509Y-94577000D01*
X175575692Y-94597764D01*
X175305193Y-94679818D01*
X175055900Y-94813068D01*
X174837393Y-94992392D01*
X174658069Y-95210899D01*
X174524819Y-95460192D01*
X174442765Y-95730691D01*
X174415058Y-96012000D01*
X174442765Y-96293309D01*
X174455635Y-96335736D01*
X172747371Y-98044000D01*
X162789793Y-98044000D01*
X162752370Y-98040314D01*
X162714947Y-98044000D01*
X162714944Y-98044000D01*
X162602992Y-98055026D01*
X162459355Y-98098598D01*
X162432411Y-98113000D01*
X162326977Y-98169355D01*
X162244274Y-98237228D01*
X162210948Y-98264578D01*
X162187091Y-98293648D01*
X160269649Y-100211091D01*
X160240579Y-100234948D01*
X160216722Y-100264018D01*
X160216721Y-100264019D01*
X160145355Y-100350978D01*
X160074599Y-100483355D01*
X160031027Y-100626992D01*
X160025899Y-100679054D01*
X159891465Y-100768880D01*
X159696880Y-100963465D01*
X159543995Y-101192273D01*
X159514308Y-101263943D01*
X159509636Y-101250977D01*
X159447656Y-101135020D01*
X159207565Y-101068040D01*
X158421605Y-101854000D01*
X158062395Y-101854000D01*
X157276435Y-101068040D01*
X157036344Y-101135020D01*
X156974921Y-101265644D01*
X156969636Y-101250977D01*
X156907656Y-101135020D01*
X156667565Y-101068040D01*
X155881605Y-101854000D01*
X155522395Y-101854000D01*
X154736435Y-101068040D01*
X154496344Y-101135020D01*
X154379244Y-101384048D01*
X154312977Y-101651135D01*
X154300090Y-101926017D01*
X127647700Y-101926017D01*
X127647700Y-100888435D01*
X154916040Y-100888435D01*
X155702000Y-101674395D01*
X156487960Y-100888435D01*
X157456040Y-100888435D01*
X158242000Y-101674395D01*
X159027960Y-100888435D01*
X158960980Y-100648344D01*
X158711952Y-100531244D01*
X158444865Y-100464977D01*
X158169983Y-100452090D01*
X157897867Y-100493078D01*
X157638977Y-100586364D01*
X157523020Y-100648344D01*
X157456040Y-100888435D01*
X156487960Y-100888435D01*
X156420980Y-100648344D01*
X156171952Y-100531244D01*
X155904865Y-100464977D01*
X155629983Y-100452090D01*
X155357867Y-100493078D01*
X155098977Y-100586364D01*
X154983020Y-100648344D01*
X154916040Y-100888435D01*
X127647700Y-100888435D01*
X127647700Y-98113000D01*
X138992928Y-98113000D01*
X139005188Y-98237482D01*
X139041498Y-98357180D01*
X139100463Y-98467494D01*
X139179815Y-98564185D01*
X139276506Y-98643537D01*
X139386820Y-98702502D01*
X139506518Y-98738812D01*
X139631000Y-98751072D01*
X140430250Y-98748000D01*
X140589000Y-98589250D01*
X140589000Y-97155000D01*
X140843000Y-97155000D01*
X140843000Y-98589250D01*
X141001750Y-98748000D01*
X141801000Y-98751072D01*
X141925482Y-98738812D01*
X142045180Y-98702502D01*
X142155494Y-98643537D01*
X142252185Y-98564185D01*
X142331537Y-98467494D01*
X142390502Y-98357180D01*
X142426812Y-98237482D01*
X142439072Y-98113000D01*
X142436000Y-97313750D01*
X142277250Y-97155000D01*
X140843000Y-97155000D01*
X140589000Y-97155000D01*
X139154750Y-97155000D01*
X138996000Y-97313750D01*
X138992928Y-98113000D01*
X127647700Y-98113000D01*
X127647700Y-95943000D01*
X138992928Y-95943000D01*
X138996000Y-96742250D01*
X139154750Y-96901000D01*
X140589000Y-96901000D01*
X140589000Y-95466750D01*
X140843000Y-95466750D01*
X140843000Y-96901000D01*
X142277250Y-96901000D01*
X142436000Y-96742250D01*
X142439072Y-95943000D01*
X142431948Y-95870665D01*
X166802001Y-95870665D01*
X166802001Y-96153335D01*
X166857148Y-96430574D01*
X166965321Y-96691727D01*
X167122364Y-96926759D01*
X167322242Y-97126637D01*
X167557274Y-97283680D01*
X167818427Y-97391853D01*
X168095666Y-97447000D01*
X168378336Y-97447000D01*
X168655575Y-97391853D01*
X168916728Y-97283680D01*
X169151760Y-97126637D01*
X169351638Y-96926759D01*
X169508681Y-96691727D01*
X169616854Y-96430574D01*
X169672001Y-96153335D01*
X169672001Y-95870665D01*
X169616854Y-95593426D01*
X169508681Y-95332273D01*
X169351638Y-95097241D01*
X169151760Y-94897363D01*
X168916728Y-94740320D01*
X168655575Y-94632147D01*
X168378336Y-94577000D01*
X168095666Y-94577000D01*
X167818427Y-94632147D01*
X167557274Y-94740320D01*
X167322242Y-94897363D01*
X167122364Y-95097241D01*
X166965321Y-95332273D01*
X166857148Y-95593426D01*
X166802001Y-95870665D01*
X142431948Y-95870665D01*
X142426812Y-95818518D01*
X142390502Y-95698820D01*
X142331537Y-95588506D01*
X142252185Y-95491815D01*
X142155494Y-95412463D01*
X142045180Y-95353498D01*
X141925482Y-95317188D01*
X141801000Y-95304928D01*
X141001750Y-95308000D01*
X140843000Y-95466750D01*
X140589000Y-95466750D01*
X140430250Y-95308000D01*
X139631000Y-95304928D01*
X139506518Y-95317188D01*
X139386820Y-95353498D01*
X139276506Y-95412463D01*
X139179815Y-95491815D01*
X139100463Y-95588506D01*
X139041498Y-95698820D01*
X139005188Y-95818518D01*
X138992928Y-95943000D01*
X127647700Y-95943000D01*
X127647700Y-94096408D01*
X154305000Y-94096408D01*
X154305000Y-94371592D01*
X154358686Y-94641490D01*
X154463995Y-94895727D01*
X154616880Y-95124535D01*
X154811465Y-95319120D01*
X155040273Y-95472005D01*
X155294510Y-95577314D01*
X155564408Y-95631000D01*
X155839592Y-95631000D01*
X156109490Y-95577314D01*
X156363727Y-95472005D01*
X156592535Y-95319120D01*
X156787120Y-95124535D01*
X156940005Y-94895727D01*
X156972000Y-94818485D01*
X157003995Y-94895727D01*
X157156880Y-95124535D01*
X157351465Y-95319120D01*
X157580273Y-95472005D01*
X157834510Y-95577314D01*
X158104408Y-95631000D01*
X158379592Y-95631000D01*
X158649490Y-95577314D01*
X158903727Y-95472005D01*
X159132535Y-95319120D01*
X159252090Y-95199565D01*
X159996040Y-95199565D01*
X160063020Y-95439656D01*
X160312048Y-95556756D01*
X160579135Y-95623023D01*
X160854017Y-95635910D01*
X161126133Y-95594922D01*
X161385023Y-95501636D01*
X161500980Y-95439656D01*
X161567960Y-95199565D01*
X160782000Y-94413605D01*
X159996040Y-95199565D01*
X159252090Y-95199565D01*
X159327120Y-95124535D01*
X159480005Y-94895727D01*
X159509692Y-94824057D01*
X159514364Y-94837023D01*
X159576344Y-94952980D01*
X159816435Y-95019960D01*
X160602395Y-94234000D01*
X160961605Y-94234000D01*
X161747565Y-95019960D01*
X161987656Y-94952980D01*
X162051485Y-94817240D01*
X162083995Y-94895727D01*
X162236880Y-95124535D01*
X162431465Y-95319120D01*
X162660273Y-95472005D01*
X162914510Y-95577314D01*
X163184408Y-95631000D01*
X163459592Y-95631000D01*
X163729490Y-95577314D01*
X163983727Y-95472005D01*
X164212535Y-95319120D01*
X164407120Y-95124535D01*
X164560005Y-94895727D01*
X164665314Y-94641490D01*
X164719000Y-94371592D01*
X164719000Y-94096408D01*
X164665314Y-93826510D01*
X164560005Y-93572273D01*
X164407120Y-93343465D01*
X164212535Y-93148880D01*
X163983727Y-92995995D01*
X163729490Y-92890686D01*
X163459592Y-92837000D01*
X163184408Y-92837000D01*
X162914510Y-92890686D01*
X162660273Y-92995995D01*
X162431465Y-93148880D01*
X162236880Y-93343465D01*
X162083995Y-93572273D01*
X162054308Y-93643943D01*
X162049636Y-93630977D01*
X161987656Y-93515020D01*
X161747565Y-93448040D01*
X160961605Y-94234000D01*
X160602395Y-94234000D01*
X159816435Y-93448040D01*
X159576344Y-93515020D01*
X159512515Y-93650760D01*
X159480005Y-93572273D01*
X159327120Y-93343465D01*
X159252090Y-93268435D01*
X159996040Y-93268435D01*
X160782000Y-94054395D01*
X161567960Y-93268435D01*
X161500980Y-93028344D01*
X161251952Y-92911244D01*
X160984865Y-92844977D01*
X160709983Y-92832090D01*
X160437867Y-92873078D01*
X160178977Y-92966364D01*
X160063020Y-93028344D01*
X159996040Y-93268435D01*
X159252090Y-93268435D01*
X159132535Y-93148880D01*
X158903727Y-92995995D01*
X158649490Y-92890686D01*
X158379592Y-92837000D01*
X158104408Y-92837000D01*
X157834510Y-92890686D01*
X157580273Y-92995995D01*
X157351465Y-93148880D01*
X157156880Y-93343465D01*
X157003995Y-93572273D01*
X156972000Y-93649515D01*
X156940005Y-93572273D01*
X156787120Y-93343465D01*
X156592535Y-93148880D01*
X156363727Y-92995995D01*
X156109490Y-92890686D01*
X155839592Y-92837000D01*
X155564408Y-92837000D01*
X155294510Y-92890686D01*
X155040273Y-92995995D01*
X154811465Y-93148880D01*
X154616880Y-93343465D01*
X154463995Y-93572273D01*
X154358686Y-93826510D01*
X154305000Y-94096408D01*
X127647700Y-94096408D01*
X127647700Y-48981030D01*
X145659028Y-48981030D01*
X145659438Y-49039733D01*
X145659028Y-49098435D01*
X145659910Y-49107435D01*
X145711727Y-49600441D01*
X145723533Y-49657957D01*
X145734531Y-49715611D01*
X145737145Y-49724268D01*
X145883734Y-50197821D01*
X145906498Y-50251973D01*
X145928474Y-50306367D01*
X145932718Y-50314348D01*
X145932720Y-50314353D01*
X145932723Y-50314357D01*
X146168497Y-50750412D01*
X146201316Y-50799069D01*
X146233467Y-50848201D01*
X146239183Y-50855209D01*
X146555167Y-51237169D01*
X146596859Y-51278572D01*
X146637896Y-51320477D01*
X146644858Y-51326237D01*
X146644863Y-51326242D01*
X146644868Y-51326246D01*
X147029020Y-51639552D01*
X147077930Y-51672048D01*
X147126353Y-51705204D01*
X147134305Y-51709504D01*
X147134313Y-51709508D01*
X147572004Y-51942232D01*
X147626289Y-51964607D01*
X147680237Y-51987729D01*
X147688875Y-51990403D01*
X148163440Y-52133682D01*
X148221025Y-52145084D01*
X148278447Y-52157290D01*
X148287440Y-52158235D01*
X148780796Y-52206609D01*
X148780809Y-52206609D01*
X148812191Y-52209700D01*
X159035809Y-52209700D01*
X159038069Y-52209477D01*
X159043993Y-52209436D01*
X159073251Y-52206361D01*
X159102668Y-52206361D01*
X159111662Y-52205416D01*
X159604293Y-52150159D01*
X159661745Y-52137947D01*
X159719302Y-52126551D01*
X159727941Y-52123877D01*
X160200457Y-51973986D01*
X160254446Y-51950846D01*
X160308689Y-51928489D01*
X160316644Y-51924188D01*
X160751049Y-51685371D01*
X160799517Y-51652185D01*
X160848381Y-51619720D01*
X160855346Y-51613958D01*
X160855351Y-51613955D01*
X160855355Y-51613951D01*
X161235094Y-51295313D01*
X161276183Y-51253354D01*
X161317823Y-51212004D01*
X161323539Y-51204996D01*
X161634158Y-50818662D01*
X161666328Y-50769502D01*
X161699129Y-50720873D01*
X161703371Y-50712896D01*
X161703376Y-50712888D01*
X161703379Y-50712880D01*
X161933041Y-50273579D01*
X161955045Y-50219117D01*
X161977781Y-50165031D01*
X161980395Y-50156374D01*
X162120357Y-49680822D01*
X162131359Y-49623153D01*
X162143162Y-49565651D01*
X162144043Y-49556664D01*
X162144045Y-49556652D01*
X162144045Y-49556641D01*
X162188972Y-49062970D01*
X162188562Y-49004268D01*
X162188972Y-48945565D01*
X162188090Y-48936565D01*
X162136273Y-48443559D01*
X162124467Y-48386043D01*
X162113469Y-48328389D01*
X162110855Y-48319732D01*
X161964266Y-47846180D01*
X161941513Y-47792052D01*
X161919526Y-47737633D01*
X161915280Y-47729648D01*
X161679503Y-47293588D01*
X161646684Y-47244931D01*
X161614533Y-47195799D01*
X161608817Y-47188791D01*
X161292833Y-46806831D01*
X161251160Y-46765448D01*
X161210105Y-46723523D01*
X161203143Y-46717764D01*
X161203137Y-46717758D01*
X161203130Y-46717754D01*
X160818980Y-46404448D01*
X160770037Y-46371930D01*
X160721646Y-46338796D01*
X160713704Y-46334502D01*
X160713692Y-46334494D01*
X160713679Y-46334489D01*
X160275996Y-46101768D01*
X160221724Y-46079399D01*
X160167764Y-46056271D01*
X160159125Y-46053597D01*
X159684561Y-45910318D01*
X159626961Y-45898913D01*
X159569553Y-45886710D01*
X159560560Y-45885765D01*
X159067205Y-45837391D01*
X159067191Y-45837391D01*
X159035809Y-45834300D01*
X148812191Y-45834300D01*
X148809931Y-45834523D01*
X148804007Y-45834564D01*
X148774749Y-45837639D01*
X148745332Y-45837639D01*
X148736338Y-45838584D01*
X148243706Y-45893841D01*
X148186248Y-45906054D01*
X148128697Y-45917449D01*
X148120069Y-45920121D01*
X148120059Y-45920123D01*
X148120050Y-45920127D01*
X147647543Y-46070014D01*
X147593570Y-46093147D01*
X147539311Y-46115511D01*
X147531356Y-46119812D01*
X147096952Y-46358628D01*
X147048491Y-46391810D01*
X146999619Y-46424280D01*
X146992656Y-46430041D01*
X146992650Y-46430045D01*
X146992645Y-46430050D01*
X146612906Y-46748687D01*
X146571801Y-46790662D01*
X146530177Y-46831996D01*
X146524461Y-46839004D01*
X146213841Y-47225338D01*
X146181670Y-47274500D01*
X146148870Y-47323128D01*
X146144625Y-47331112D01*
X145914959Y-47770422D01*
X145892960Y-47824870D01*
X145870219Y-47878969D01*
X145867605Y-47887626D01*
X145727642Y-48363178D01*
X145716634Y-48420884D01*
X145704838Y-48478349D01*
X145703957Y-48487336D01*
X145703955Y-48487348D01*
X145703955Y-48487359D01*
X145659028Y-48981030D01*
X127647700Y-48981030D01*
X127647700Y-42049700D01*
X180200301Y-42049700D01*
X180200300Y-122670000D01*
X180200300Y-122670000D01*
G37*
X180200300Y-122670000D02*
X174761000Y-122670000D01*
X174761000Y-126352300D01*
X127647700Y-126352300D01*
X127647700Y-121763891D01*
X131591000Y-121763891D01*
X131591000Y-122076109D01*
X131651911Y-122382327D01*
X131771391Y-122670779D01*
X131944850Y-122930379D01*
X132165621Y-123151150D01*
X132425221Y-123324609D01*
X132713673Y-123444089D01*
X133019891Y-123505000D01*
X133332109Y-123505000D01*
X133638327Y-123444089D01*
X133926779Y-123324609D01*
X134186379Y-123151150D01*
X134407150Y-122930379D01*
X134426000Y-122902168D01*
X134444850Y-122930379D01*
X134665621Y-123151150D01*
X134925221Y-123324609D01*
X135213673Y-123444089D01*
X135519891Y-123505000D01*
X135832109Y-123505000D01*
X136138327Y-123444089D01*
X136426779Y-123324609D01*
X136664186Y-123165979D01*
X136695463Y-123224494D01*
X136774815Y-123321185D01*
X136871506Y-123400537D01*
X136981820Y-123459502D01*
X137101518Y-123495812D01*
X137226000Y-123508072D01*
X139126000Y-123508072D01*
X139250482Y-123495812D01*
X139370180Y-123459502D01*
X139480494Y-123400537D01*
X139577185Y-123321185D01*
X139656537Y-123224494D01*
X139715502Y-123114180D01*
X139751812Y-122994482D01*
X139764072Y-122870000D01*
X139764072Y-121305666D01*
X141822001Y-121305666D01*
X141822001Y-121588336D01*
X141877148Y-121865575D01*
X141985321Y-122126728D01*
X142142364Y-122361760D01*
X142342242Y-122561638D01*
X142577274Y-122718681D01*
X142838427Y-122826854D01*
X143115666Y-122882001D01*
X143398336Y-122882001D01*
X143675575Y-122826854D01*
X143936728Y-122718681D01*
X144171760Y-122561638D01*
X144371638Y-122361760D01*
X144477083Y-122203950D01*
X144537749Y-122197975D01*
X144616784Y-122174000D01*
X145504577Y-122174000D01*
X145542000Y-122177686D01*
X145579423Y-122174000D01*
X145579426Y-122174000D01*
X145691378Y-122162974D01*
X145835015Y-122119402D01*
X145967392Y-122048645D01*
X146083422Y-121953422D01*
X146107284Y-121924346D01*
X146584629Y-121447001D01*
X149435058Y-121447001D01*
X149462765Y-121728310D01*
X149544819Y-121998809D01*
X149678069Y-122248102D01*
X149857393Y-122466609D01*
X150075900Y-122645933D01*
X150325193Y-122779183D01*
X150595692Y-122861237D01*
X150806509Y-122882001D01*
X150947493Y-122882001D01*
X151158310Y-122861237D01*
X151428809Y-122779183D01*
X151678102Y-122645933D01*
X151896609Y-122466609D01*
X152075933Y-122248102D01*
X152209183Y-121998809D01*
X152291237Y-121728310D01*
X152318944Y-121447001D01*
X155022057Y-121447001D01*
X155049764Y-121728310D01*
X155131818Y-121998809D01*
X155265068Y-122248102D01*
X155444392Y-122466609D01*
X155662899Y-122645933D01*
X155912192Y-122779183D01*
X156182691Y-122861237D01*
X156393508Y-122882001D01*
X156534492Y-122882001D01*
X156745309Y-122861237D01*
X157015808Y-122779183D01*
X157265101Y-122645933D01*
X157483608Y-122466609D01*
X157662932Y-122248102D01*
X157796182Y-121998809D01*
X157878236Y-121728310D01*
X157905943Y-121447001D01*
X157892023Y-121305666D01*
X162649000Y-121305666D01*
X162649000Y-121588336D01*
X162704147Y-121865575D01*
X162812320Y-122126728D01*
X162969363Y-122361760D01*
X163169241Y-122561638D01*
X163404273Y-122718681D01*
X163665426Y-122826854D01*
X163942665Y-122882001D01*
X164225335Y-122882001D01*
X164502574Y-122826854D01*
X164763727Y-122718681D01*
X164998759Y-122561638D01*
X165198637Y-122361760D01*
X165332112Y-122162000D01*
X167517928Y-122162000D01*
X167530188Y-122286482D01*
X167566498Y-122406180D01*
X167625463Y-122516494D01*
X167704815Y-122613185D01*
X167801506Y-122692537D01*
X167911820Y-122751502D01*
X168031518Y-122787812D01*
X168156000Y-122800072D01*
X168370250Y-122797000D01*
X168529000Y-122638250D01*
X168529000Y-121539000D01*
X167679750Y-121539000D01*
X167521000Y-121697750D01*
X167517928Y-122162000D01*
X165332112Y-122162000D01*
X165355680Y-122126728D01*
X165463853Y-121865575D01*
X165519000Y-121588336D01*
X165519000Y-121305666D01*
X165463853Y-121028427D01*
X165355680Y-120767274D01*
X165285339Y-120662000D01*
X167517928Y-120662000D01*
X167521000Y-121126250D01*
X167679750Y-121285000D01*
X168529000Y-121285000D01*
X168529000Y-120185750D01*
X168783000Y-120185750D01*
X168783000Y-121285000D01*
X168791000Y-121285000D01*
X168791000Y-121539000D01*
X168783000Y-121539000D01*
X168783000Y-122638250D01*
X168941750Y-122797000D01*
X169156000Y-122800072D01*
X169280482Y-122787812D01*
X169400180Y-122751502D01*
X169478379Y-122709703D01*
X169489553Y-122715676D01*
X169703501Y-122780577D01*
X169926000Y-122802491D01*
X170148498Y-122780577D01*
X170362446Y-122715676D01*
X170559623Y-122610284D01*
X170561000Y-122609154D01*
X170562377Y-122610284D01*
X170759553Y-122715676D01*
X170973501Y-122780577D01*
X171196000Y-122802491D01*
X171418498Y-122780577D01*
X171632446Y-122715676D01*
X171829623Y-122610284D01*
X172002449Y-122468449D01*
X172144284Y-122295623D01*
X172249676Y-122098447D01*
X172314577Y-121884499D01*
X172331000Y-121717752D01*
X172331000Y-121106249D01*
X172314577Y-120939502D01*
X172249676Y-120725554D01*
X172144284Y-120528377D01*
X172002449Y-120355551D01*
X171829623Y-120213716D01*
X171632447Y-120108324D01*
X171418499Y-120043423D01*
X171196000Y-120021509D01*
X170973502Y-120043423D01*
X170759554Y-120108324D01*
X170562378Y-120213716D01*
X170561000Y-120214846D01*
X170559623Y-120213716D01*
X170362447Y-120108324D01*
X170148499Y-120043423D01*
X169926000Y-120021509D01*
X169703502Y-120043423D01*
X169489554Y-120108324D01*
X169478379Y-120114297D01*
X169400180Y-120072498D01*
X169280482Y-120036188D01*
X169156000Y-120023928D01*
X168941750Y-120027000D01*
X168783000Y-120185750D01*
X168529000Y-120185750D01*
X168370250Y-120027000D01*
X168156000Y-120023928D01*
X168031518Y-120036188D01*
X167911820Y-120072498D01*
X167801506Y-120131463D01*
X167704815Y-120210815D01*
X167625463Y-120307506D01*
X167566498Y-120417820D01*
X167530188Y-120537518D01*
X167517928Y-120662000D01*
X165285339Y-120662000D01*
X165198637Y-120532242D01*
X164998759Y-120332364D01*
X164763727Y-120175321D01*
X164502574Y-120067148D01*
X164225335Y-120012001D01*
X163942665Y-120012001D01*
X163665426Y-120067148D01*
X163404273Y-120175321D01*
X163169241Y-120332364D01*
X162969363Y-120532242D01*
X162812320Y-120767274D01*
X162704147Y-121028427D01*
X162649000Y-121305666D01*
X157892023Y-121305666D01*
X157878236Y-121165692D01*
X157796182Y-120895193D01*
X157662932Y-120645900D01*
X157483608Y-120427393D01*
X157265101Y-120248069D01*
X157015808Y-120114819D01*
X156745309Y-120032765D01*
X156534492Y-120012001D01*
X156393508Y-120012001D01*
X156182691Y-120032765D01*
X155912192Y-120114819D01*
X155662899Y-120248069D01*
X155444392Y-120427393D01*
X155265068Y-120645900D01*
X155131818Y-120895193D01*
X155049764Y-121165692D01*
X155022057Y-121447001D01*
X152318944Y-121447001D01*
X152291237Y-121165692D01*
X152209183Y-120895193D01*
X152075933Y-120645900D01*
X151896609Y-120427393D01*
X151678102Y-120248069D01*
X151428809Y-120114819D01*
X151158310Y-120032765D01*
X150947493Y-120012001D01*
X150806509Y-120012001D01*
X150595692Y-120032765D01*
X150325193Y-120114819D01*
X150075900Y-120248069D01*
X149857393Y-120427393D01*
X149678069Y-120645900D01*
X149544819Y-120895193D01*
X149462765Y-121165692D01*
X149435058Y-121447001D01*
X146584629Y-121447001D01*
X151492630Y-116539001D01*
X155247293Y-116539001D01*
X155349363Y-116691760D01*
X155549241Y-116891638D01*
X155784273Y-117048681D01*
X156045426Y-117156854D01*
X156322665Y-117212001D01*
X156605335Y-117212001D01*
X156882574Y-117156854D01*
X157143727Y-117048681D01*
X157378759Y-116891638D01*
X157578637Y-116691760D01*
X157735680Y-116456728D01*
X157843853Y-116195575D01*
X157899000Y-115918336D01*
X157899000Y-115777001D01*
X162642057Y-115777001D01*
X162669764Y-116058310D01*
X162751818Y-116328809D01*
X162885068Y-116578102D01*
X163064392Y-116796609D01*
X163282899Y-116975933D01*
X163532192Y-117109183D01*
X163802691Y-117191237D01*
X164013508Y-117212001D01*
X164154492Y-117212001D01*
X164365309Y-117191237D01*
X164635808Y-117109183D01*
X164885101Y-116975933D01*
X165103608Y-116796609D01*
X165282932Y-116578102D01*
X165303832Y-116539001D01*
X167903576Y-116539001D01*
X167940999Y-116542687D01*
X167978422Y-116539001D01*
X167978425Y-116539001D01*
X168090377Y-116527975D01*
X168234014Y-116484403D01*
X168366391Y-116413646D01*
X168482421Y-116318423D01*
X168506283Y-116289347D01*
X172678814Y-112116816D01*
X173725000Y-112116816D01*
X173725000Y-112419184D01*
X173783989Y-112715743D01*
X173899701Y-112995095D01*
X174067688Y-113246505D01*
X174281495Y-113460312D01*
X174532905Y-113628299D01*
X174812257Y-113744011D01*
X175108816Y-113803000D01*
X175411184Y-113803000D01*
X175707743Y-113744011D01*
X175987095Y-113628299D01*
X176238505Y-113460312D01*
X176304944Y-113393873D01*
X176310498Y-113412180D01*
X176369463Y-113522494D01*
X176448815Y-113619185D01*
X176545506Y-113698537D01*
X176655820Y-113757502D01*
X176775518Y-113793812D01*
X176900000Y-113806072D01*
X178700000Y-113806072D01*
X178824482Y-113793812D01*
X178944180Y-113757502D01*
X179054494Y-113698537D01*
X179151185Y-113619185D01*
X179230537Y-113522494D01*
X179289502Y-113412180D01*
X179325812Y-113292482D01*
X179338072Y-113168000D01*
X179338072Y-111368000D01*
X179325812Y-111243518D01*
X179289502Y-111123820D01*
X179230537Y-111013506D01*
X179151185Y-110916815D01*
X179054494Y-110837463D01*
X178944180Y-110778498D01*
X178824482Y-110742188D01*
X178700000Y-110729928D01*
X176900000Y-110729928D01*
X176775518Y-110742188D01*
X176655820Y-110778498D01*
X176545506Y-110837463D01*
X176448815Y-110916815D01*
X176369463Y-111013506D01*
X176310498Y-111123820D01*
X176304944Y-111142127D01*
X176238505Y-111075688D01*
X175987095Y-110907701D01*
X175707743Y-110791989D01*
X175411184Y-110733000D01*
X175108816Y-110733000D01*
X174812257Y-110791989D01*
X174532905Y-110907701D01*
X174281495Y-111075688D01*
X174067688Y-111289495D01*
X173899701Y-111540905D01*
X173783989Y-111820257D01*
X173725000Y-112116816D01*
X172678814Y-112116816D01*
X173486353Y-111309278D01*
X173515422Y-111285422D01*
X173610645Y-111169392D01*
X173681402Y-111037015D01*
X173724974Y-110893378D01*
X173736000Y-110781426D01*
X173736000Y-110781424D01*
X173739686Y-110744001D01*
X173736000Y-110706578D01*
X173736000Y-108988631D01*
X174853430Y-107871202D01*
X175108816Y-107922001D01*
X175411184Y-107922001D01*
X175707743Y-107863012D01*
X175987095Y-107747300D01*
X176238505Y-107579313D01*
X176304944Y-107512874D01*
X176310498Y-107531181D01*
X176369463Y-107641495D01*
X176448815Y-107738186D01*
X176545506Y-107817538D01*
X176655820Y-107876503D01*
X176775518Y-107912813D01*
X176900000Y-107925073D01*
X178700000Y-107925073D01*
X178824482Y-107912813D01*
X178944180Y-107876503D01*
X179054494Y-107817538D01*
X179151185Y-107738186D01*
X179230537Y-107641495D01*
X179289502Y-107531181D01*
X179325812Y-107411483D01*
X179338072Y-107287001D01*
X179338072Y-105487001D01*
X179325812Y-105362519D01*
X179289502Y-105242821D01*
X179230537Y-105132507D01*
X179151185Y-105035816D01*
X179054494Y-104956464D01*
X178944180Y-104897499D01*
X178824482Y-104861189D01*
X178700000Y-104848929D01*
X176900000Y-104848929D01*
X176775518Y-104861189D01*
X176655820Y-104897499D01*
X176545506Y-104956464D01*
X176448815Y-105035816D01*
X176369463Y-105132507D01*
X176310498Y-105242821D01*
X176304944Y-105261128D01*
X176238505Y-105194689D01*
X175987095Y-105026702D01*
X175707743Y-104910990D01*
X175411184Y-104852001D01*
X175108816Y-104852001D01*
X174812257Y-104910990D01*
X174532905Y-105026702D01*
X174281495Y-105194689D01*
X174067688Y-105408496D01*
X173899701Y-105659906D01*
X173783989Y-105939258D01*
X173725000Y-106235817D01*
X173725000Y-106538185D01*
X173775799Y-106793571D01*
X172461649Y-108107722D01*
X172432579Y-108131579D01*
X172408722Y-108160649D01*
X172408721Y-108160650D01*
X172337355Y-108247609D01*
X172266599Y-108379986D01*
X172223027Y-108523623D01*
X172208314Y-108673001D01*
X172212001Y-108710434D01*
X172212000Y-110428369D01*
X167625369Y-115015001D01*
X165947249Y-115015001D01*
X165847763Y-114933355D01*
X165715387Y-114862599D01*
X165571749Y-114819027D01*
X165422371Y-114804314D01*
X165272992Y-114819027D01*
X165177870Y-114847882D01*
X165103608Y-114757393D01*
X164885101Y-114578069D01*
X164635808Y-114444819D01*
X164365309Y-114362765D01*
X164154492Y-114342001D01*
X164013508Y-114342001D01*
X163802691Y-114362765D01*
X163532192Y-114444819D01*
X163282899Y-114578069D01*
X163064392Y-114757393D01*
X162885068Y-114975900D01*
X162751818Y-115225193D01*
X162669764Y-115495692D01*
X162642057Y-115777001D01*
X157899000Y-115777001D01*
X157899000Y-115635666D01*
X157843853Y-115358427D01*
X157735680Y-115097274D01*
X157578637Y-114862242D01*
X157378759Y-114662364D01*
X157143727Y-114505321D01*
X156882574Y-114397148D01*
X156605335Y-114342001D01*
X156322665Y-114342001D01*
X156045426Y-114397148D01*
X155784273Y-114505321D01*
X155549241Y-114662364D01*
X155349363Y-114862242D01*
X155247293Y-115015001D01*
X151214421Y-115015001D01*
X151176998Y-115011315D01*
X151139575Y-115015001D01*
X151139573Y-115015001D01*
X151027621Y-115026027D01*
X150883984Y-115069599D01*
X150751607Y-115140356D01*
X150635577Y-115235579D01*
X150611720Y-115264649D01*
X145226370Y-120650000D01*
X144460795Y-120650000D01*
X144449583Y-120648896D01*
X144371638Y-120532242D01*
X144171760Y-120332364D01*
X143936728Y-120175321D01*
X143675575Y-120067148D01*
X143398336Y-120012001D01*
X143115666Y-120012001D01*
X142838427Y-120067148D01*
X142577274Y-120175321D01*
X142342242Y-120332364D01*
X142142364Y-120532242D01*
X141985321Y-120767274D01*
X141877148Y-121028427D01*
X141822001Y-121305666D01*
X139764072Y-121305666D01*
X139764072Y-120970000D01*
X139751812Y-120845518D01*
X139715502Y-120725820D01*
X139656537Y-120615506D01*
X139577185Y-120518815D01*
X139480494Y-120439463D01*
X139370180Y-120380498D01*
X139250482Y-120344188D01*
X139126000Y-120331928D01*
X137226000Y-120331928D01*
X137101518Y-120344188D01*
X136981820Y-120380498D01*
X136871506Y-120439463D01*
X136774815Y-120518815D01*
X136695463Y-120615506D01*
X136664186Y-120674021D01*
X136426779Y-120515391D01*
X136138327Y-120395911D01*
X135832109Y-120335000D01*
X135519891Y-120335000D01*
X135213673Y-120395911D01*
X134925221Y-120515391D01*
X134665621Y-120688850D01*
X134444850Y-120909621D01*
X134426000Y-120937832D01*
X134407150Y-120909621D01*
X134186379Y-120688850D01*
X133926779Y-120515391D01*
X133638327Y-120395911D01*
X133332109Y-120335000D01*
X133019891Y-120335000D01*
X132713673Y-120395911D01*
X132425221Y-120515391D01*
X132165621Y-120688850D01*
X131944850Y-120909621D01*
X131771391Y-121169221D01*
X131651911Y-121457673D01*
X131591000Y-121763891D01*
X127647700Y-121763891D01*
X127647700Y-116842344D01*
X138831000Y-116842344D01*
X138831000Y-117213656D01*
X138903439Y-117577834D01*
X139045534Y-117920882D01*
X139251825Y-118229618D01*
X139514382Y-118492175D01*
X139823118Y-118698466D01*
X140166166Y-118840561D01*
X140530344Y-118913000D01*
X140901656Y-118913000D01*
X141265834Y-118840561D01*
X141608882Y-118698466D01*
X141917618Y-118492175D01*
X142180175Y-118229618D01*
X142386466Y-117920882D01*
X142528561Y-117577834D01*
X142601000Y-117213656D01*
X142601000Y-116842344D01*
X142528561Y-116478166D01*
X142386466Y-116135118D01*
X142180175Y-115826382D01*
X141917618Y-115563825D01*
X141608882Y-115357534D01*
X141265834Y-115215439D01*
X140901656Y-115143000D01*
X140530344Y-115143000D01*
X140166166Y-115215439D01*
X139823118Y-115357534D01*
X139514382Y-115563825D01*
X139251825Y-115826382D01*
X139045534Y-116135118D01*
X138903439Y-116478166D01*
X138831000Y-116842344D01*
X127647700Y-116842344D01*
X127647700Y-111110665D01*
X155029000Y-111110665D01*
X155029000Y-111393335D01*
X155084147Y-111670574D01*
X155192320Y-111931727D01*
X155349363Y-112166759D01*
X155549241Y-112366637D01*
X155784273Y-112523680D01*
X156045426Y-112631853D01*
X156322665Y-112687000D01*
X156605335Y-112687000D01*
X156785527Y-112651157D01*
X157930721Y-113796352D01*
X157954578Y-113825422D01*
X157983648Y-113849279D01*
X158070607Y-113920645D01*
X158141364Y-113958465D01*
X158202985Y-113991402D01*
X158346622Y-114034974D01*
X158458574Y-114046000D01*
X158458577Y-114046000D01*
X158496000Y-114049686D01*
X158533423Y-114046000D01*
X167640577Y-114046000D01*
X167678000Y-114049686D01*
X167715423Y-114046000D01*
X167715426Y-114046000D01*
X167827378Y-114034974D01*
X167971015Y-113991402D01*
X168103392Y-113920645D01*
X168219422Y-113825422D01*
X168243284Y-113796346D01*
X171200353Y-110839278D01*
X171229422Y-110815422D01*
X171267591Y-110768913D01*
X171324645Y-110699393D01*
X171346731Y-110658072D01*
X171488000Y-110658072D01*
X171612482Y-110645812D01*
X171732180Y-110609502D01*
X171842494Y-110550537D01*
X171939185Y-110471185D01*
X172018537Y-110374494D01*
X172077502Y-110264180D01*
X172113812Y-110144482D01*
X172126072Y-110020000D01*
X172126072Y-108420000D01*
X172113812Y-108295518D01*
X172077502Y-108175820D01*
X172018537Y-108065506D01*
X171939185Y-107968815D01*
X171842494Y-107889463D01*
X171732180Y-107830498D01*
X171612482Y-107794188D01*
X171488000Y-107781928D01*
X169888000Y-107781928D01*
X169763518Y-107794188D01*
X169643820Y-107830498D01*
X169533506Y-107889463D01*
X169436815Y-107968815D01*
X169357463Y-108065506D01*
X169298498Y-108175820D01*
X169262188Y-108295518D01*
X169249928Y-108420000D01*
X169249928Y-108427215D01*
X169180702Y-108406903D01*
X168367605Y-109220000D01*
X169180702Y-110033097D01*
X169249928Y-110012785D01*
X169249928Y-110020000D01*
X169262188Y-110144482D01*
X169298498Y-110264180D01*
X169357463Y-110374494D01*
X169426163Y-110458206D01*
X167362370Y-112522000D01*
X164743018Y-112522000D01*
X164939131Y-112404385D01*
X165147519Y-112215414D01*
X165315037Y-111989420D01*
X165435246Y-111735087D01*
X165475904Y-111601039D01*
X165353915Y-111379000D01*
X164211000Y-111379000D01*
X164211000Y-111399000D01*
X163957000Y-111399000D01*
X163957000Y-111379000D01*
X162814085Y-111379000D01*
X162692096Y-111601039D01*
X162732754Y-111735087D01*
X162852963Y-111989420D01*
X163020481Y-112215414D01*
X163228869Y-112404385D01*
X163424982Y-112522000D01*
X158811631Y-112522000D01*
X157863157Y-111573527D01*
X157899000Y-111393335D01*
X157899000Y-111110665D01*
X157857685Y-110902961D01*
X162692096Y-110902961D01*
X162814085Y-111125000D01*
X163957000Y-111125000D01*
X163957000Y-109981376D01*
X164211000Y-109981376D01*
X164211000Y-111125000D01*
X165353915Y-111125000D01*
X165475904Y-110902961D01*
X165435246Y-110768913D01*
X165315037Y-110514580D01*
X165147519Y-110288586D01*
X165063838Y-110212702D01*
X167374903Y-110212702D01*
X167446486Y-110456671D01*
X167701996Y-110577571D01*
X167976184Y-110646300D01*
X168258512Y-110660217D01*
X168538130Y-110618787D01*
X168804292Y-110523603D01*
X168929514Y-110456671D01*
X169001097Y-110212702D01*
X168188000Y-109399605D01*
X167374903Y-110212702D01*
X165063838Y-110212702D01*
X164939131Y-110099615D01*
X164697881Y-109954930D01*
X164433040Y-109860091D01*
X164211000Y-109981376D01*
X163957000Y-109981376D01*
X163734960Y-109860091D01*
X163470119Y-109954930D01*
X163228869Y-110099615D01*
X163020481Y-110288586D01*
X162852963Y-110514580D01*
X162732754Y-110768913D01*
X162692096Y-110902961D01*
X157857685Y-110902961D01*
X157843853Y-110833426D01*
X157735680Y-110572273D01*
X157578637Y-110337241D01*
X157378759Y-110137363D01*
X157143727Y-109980320D01*
X156882574Y-109872147D01*
X156605335Y-109817000D01*
X156322665Y-109817000D01*
X156045426Y-109872147D01*
X155784273Y-109980320D01*
X155549241Y-110137363D01*
X155349363Y-110337241D01*
X155192320Y-110572273D01*
X155084147Y-110833426D01*
X155029000Y-111110665D01*
X127647700Y-111110665D01*
X127647700Y-109290512D01*
X166747783Y-109290512D01*
X166789213Y-109570130D01*
X166884397Y-109836292D01*
X166951329Y-109961514D01*
X167195298Y-110033097D01*
X168008395Y-109220000D01*
X167195298Y-108406903D01*
X166951329Y-108478486D01*
X166830429Y-108733996D01*
X166761700Y-109008184D01*
X166747783Y-109290512D01*
X127647700Y-109290512D01*
X127647700Y-108227298D01*
X167374903Y-108227298D01*
X168188000Y-109040395D01*
X169001097Y-108227298D01*
X168929514Y-107983329D01*
X168674004Y-107862429D01*
X168399816Y-107793700D01*
X168117488Y-107779783D01*
X167837870Y-107821213D01*
X167571708Y-107916397D01*
X167446486Y-107983329D01*
X167374903Y-108227298D01*
X127647700Y-108227298D01*
X127647700Y-106538665D01*
X155029000Y-106538665D01*
X155029000Y-106821335D01*
X155084147Y-107098574D01*
X155192320Y-107359727D01*
X155349363Y-107594759D01*
X155549241Y-107794637D01*
X155784273Y-107951680D01*
X156045426Y-108059853D01*
X156322665Y-108115000D01*
X156605335Y-108115000D01*
X156882574Y-108059853D01*
X157143727Y-107951680D01*
X157378759Y-107794637D01*
X157578637Y-107594759D01*
X157735680Y-107359727D01*
X157843853Y-107098574D01*
X157857684Y-107029039D01*
X162692096Y-107029039D01*
X162732754Y-107163087D01*
X162852963Y-107417420D01*
X163020481Y-107643414D01*
X163228869Y-107832385D01*
X163470119Y-107977070D01*
X163734960Y-108071909D01*
X163957000Y-107950624D01*
X163957000Y-106807000D01*
X164211000Y-106807000D01*
X164211000Y-107950624D01*
X164433040Y-108071909D01*
X164697881Y-107977070D01*
X164939131Y-107832385D01*
X165147519Y-107643414D01*
X165315037Y-107417420D01*
X165435246Y-107163087D01*
X165475904Y-107029039D01*
X165353915Y-106807000D01*
X164211000Y-106807000D01*
X163957000Y-106807000D01*
X162814085Y-106807000D01*
X162692096Y-107029039D01*
X157857684Y-107029039D01*
X157899000Y-106821335D01*
X157899000Y-106538665D01*
X157857685Y-106330961D01*
X162692096Y-106330961D01*
X162814085Y-106553000D01*
X163957000Y-106553000D01*
X163957000Y-105409376D01*
X164211000Y-105409376D01*
X164211000Y-106553000D01*
X165353915Y-106553000D01*
X165475904Y-106330961D01*
X165435246Y-106196913D01*
X165315037Y-105942580D01*
X165147519Y-105716586D01*
X164939131Y-105527615D01*
X164697881Y-105382930D01*
X164433040Y-105288091D01*
X164211000Y-105409376D01*
X163957000Y-105409376D01*
X163734960Y-105288091D01*
X163470119Y-105382930D01*
X163228869Y-105527615D01*
X163020481Y-105716586D01*
X162852963Y-105942580D01*
X162732754Y-106196913D01*
X162692096Y-106330961D01*
X157857685Y-106330961D01*
X157843853Y-106261426D01*
X157735680Y-106000273D01*
X157578637Y-105765241D01*
X157378759Y-105565363D01*
X157143727Y-105408320D01*
X156882574Y-105300147D01*
X156605335Y-105245000D01*
X156322665Y-105245000D01*
X156045426Y-105300147D01*
X155784273Y-105408320D01*
X155549241Y-105565363D01*
X155349363Y-105765241D01*
X155192320Y-106000273D01*
X155084147Y-106261426D01*
X155029000Y-106538665D01*
X127647700Y-106538665D01*
X127647700Y-102819565D01*
X154916040Y-102819565D01*
X154983020Y-103059656D01*
X155232048Y-103176756D01*
X155499135Y-103243023D01*
X155774017Y-103255910D01*
X156046133Y-103214922D01*
X156305023Y-103121636D01*
X156420980Y-103059656D01*
X156487960Y-102819565D01*
X157456040Y-102819565D01*
X157523020Y-103059656D01*
X157772048Y-103176756D01*
X158039135Y-103243023D01*
X158314017Y-103255910D01*
X158586133Y-103214922D01*
X158845023Y-103121636D01*
X158960980Y-103059656D01*
X159027960Y-102819565D01*
X158242000Y-102033605D01*
X157456040Y-102819565D01*
X156487960Y-102819565D01*
X155702000Y-102033605D01*
X154916040Y-102819565D01*
X127647700Y-102819565D01*
X127647700Y-101926017D01*
X154300090Y-101926017D01*
X154341078Y-102198133D01*
X154434364Y-102457023D01*
X154496344Y-102572980D01*
X154736435Y-102639960D01*
X155522395Y-101854000D01*
X155881605Y-101854000D01*
X156667565Y-102639960D01*
X156907656Y-102572980D01*
X156969079Y-102442356D01*
X156974364Y-102457023D01*
X157036344Y-102572980D01*
X157276435Y-102639960D01*
X158062395Y-101854000D01*
X158421605Y-101854000D01*
X159207565Y-102639960D01*
X159447656Y-102572980D01*
X159511485Y-102437240D01*
X159543995Y-102515727D01*
X159696880Y-102744535D01*
X159891465Y-102939120D01*
X160120273Y-103092005D01*
X160374510Y-103197314D01*
X160644408Y-103251000D01*
X160919592Y-103251000D01*
X161189490Y-103197314D01*
X161443727Y-103092005D01*
X161672535Y-102939120D01*
X161867120Y-102744535D01*
X162020005Y-102515727D01*
X162052000Y-102438485D01*
X162083995Y-102515727D01*
X162236880Y-102744535D01*
X162431465Y-102939120D01*
X162660273Y-103092005D01*
X162914510Y-103197314D01*
X163184408Y-103251000D01*
X163459592Y-103251000D01*
X163729490Y-103197314D01*
X163983727Y-103092005D01*
X164212535Y-102939120D01*
X164407120Y-102744535D01*
X164560005Y-102515727D01*
X164665314Y-102261490D01*
X164719000Y-101991592D01*
X164719000Y-101716408D01*
X164665314Y-101446510D01*
X164560005Y-101192273D01*
X164407120Y-100963465D01*
X164394320Y-100950665D01*
X166802001Y-100950665D01*
X166802001Y-101233335D01*
X166857148Y-101510574D01*
X166965321Y-101771727D01*
X167122364Y-102006759D01*
X167322242Y-102206637D01*
X167557274Y-102363680D01*
X167818427Y-102471853D01*
X168095666Y-102527000D01*
X168378336Y-102527000D01*
X168655575Y-102471853D01*
X168916728Y-102363680D01*
X169151760Y-102206637D01*
X169351638Y-102006759D01*
X169508681Y-101771727D01*
X169616854Y-101510574D01*
X169672001Y-101233335D01*
X169672001Y-101092000D01*
X174415058Y-101092000D01*
X174442765Y-101373309D01*
X174524819Y-101643808D01*
X174658069Y-101893101D01*
X174837393Y-102111608D01*
X175055900Y-102290932D01*
X175305193Y-102424182D01*
X175575692Y-102506236D01*
X175786509Y-102527000D01*
X175927493Y-102527000D01*
X176138310Y-102506236D01*
X176408809Y-102424182D01*
X176658102Y-102290932D01*
X176876609Y-102111608D01*
X177055933Y-101893101D01*
X177189183Y-101643808D01*
X177271237Y-101373309D01*
X177298944Y-101092000D01*
X177271237Y-100810691D01*
X177189183Y-100540192D01*
X177055933Y-100290899D01*
X176876609Y-100072392D01*
X176658102Y-99893068D01*
X176408809Y-99759818D01*
X176138310Y-99677764D01*
X175927493Y-99657000D01*
X175786509Y-99657000D01*
X175575692Y-99677764D01*
X175305193Y-99759818D01*
X175055900Y-99893068D01*
X174837393Y-100072392D01*
X174658069Y-100290899D01*
X174524819Y-100540192D01*
X174442765Y-100810691D01*
X174415058Y-101092000D01*
X169672001Y-101092000D01*
X169672001Y-100950665D01*
X169616854Y-100673426D01*
X169508681Y-100412273D01*
X169351638Y-100177241D01*
X169151760Y-99977363D01*
X168916728Y-99820320D01*
X168655575Y-99712147D01*
X168378336Y-99657000D01*
X168095666Y-99657000D01*
X167818427Y-99712147D01*
X167557274Y-99820320D01*
X167322242Y-99977363D01*
X167122364Y-100177241D01*
X166965321Y-100412273D01*
X166857148Y-100673426D01*
X166802001Y-100950665D01*
X164394320Y-100950665D01*
X164212535Y-100768880D01*
X163983727Y-100615995D01*
X163729490Y-100510686D01*
X163459592Y-100457000D01*
X163184408Y-100457000D01*
X162914510Y-100510686D01*
X162660273Y-100615995D01*
X162431465Y-100768880D01*
X162236880Y-100963465D01*
X162083995Y-101192273D01*
X162052000Y-101269515D01*
X162020005Y-101192273D01*
X161867120Y-100963465D01*
X161769828Y-100866173D01*
X163068001Y-99568000D01*
X173025578Y-99568000D01*
X173063001Y-99571686D01*
X173100424Y-99568000D01*
X173100427Y-99568000D01*
X173212379Y-99556974D01*
X173356016Y-99513402D01*
X173488393Y-99442645D01*
X173604423Y-99347422D01*
X173628285Y-99318346D01*
X175533265Y-97413366D01*
X175575692Y-97426236D01*
X175786509Y-97447000D01*
X175927493Y-97447000D01*
X176138310Y-97426236D01*
X176408809Y-97344182D01*
X176658102Y-97210932D01*
X176876609Y-97031608D01*
X177055933Y-96813101D01*
X177189183Y-96563808D01*
X177271237Y-96293309D01*
X177298944Y-96012000D01*
X177271237Y-95730691D01*
X177189183Y-95460192D01*
X177055933Y-95210899D01*
X176876609Y-94992392D01*
X176658102Y-94813068D01*
X176408809Y-94679818D01*
X176138310Y-94597764D01*
X175927493Y-94577000D01*
X175786509Y-94577000D01*
X175575692Y-94597764D01*
X175305193Y-94679818D01*
X175055900Y-94813068D01*
X174837393Y-94992392D01*
X174658069Y-95210899D01*
X174524819Y-95460192D01*
X174442765Y-95730691D01*
X174415058Y-96012000D01*
X174442765Y-96293309D01*
X174455635Y-96335736D01*
X172747371Y-98044000D01*
X162789793Y-98044000D01*
X162752370Y-98040314D01*
X162714947Y-98044000D01*
X162714944Y-98044000D01*
X162602992Y-98055026D01*
X162459355Y-98098598D01*
X162432411Y-98113000D01*
X162326977Y-98169355D01*
X162244274Y-98237228D01*
X162210948Y-98264578D01*
X162187091Y-98293648D01*
X160269649Y-100211091D01*
X160240579Y-100234948D01*
X160216722Y-100264018D01*
X160216721Y-100264019D01*
X160145355Y-100350978D01*
X160074599Y-100483355D01*
X160031027Y-100626992D01*
X160025899Y-100679054D01*
X159891465Y-100768880D01*
X159696880Y-100963465D01*
X159543995Y-101192273D01*
X159514308Y-101263943D01*
X159509636Y-101250977D01*
X159447656Y-101135020D01*
X159207565Y-101068040D01*
X158421605Y-101854000D01*
X158062395Y-101854000D01*
X157276435Y-101068040D01*
X157036344Y-101135020D01*
X156974921Y-101265644D01*
X156969636Y-101250977D01*
X156907656Y-101135020D01*
X156667565Y-101068040D01*
X155881605Y-101854000D01*
X155522395Y-101854000D01*
X154736435Y-101068040D01*
X154496344Y-101135020D01*
X154379244Y-101384048D01*
X154312977Y-101651135D01*
X154300090Y-101926017D01*
X127647700Y-101926017D01*
X127647700Y-100888435D01*
X154916040Y-100888435D01*
X155702000Y-101674395D01*
X156487960Y-100888435D01*
X157456040Y-100888435D01*
X158242000Y-101674395D01*
X159027960Y-100888435D01*
X158960980Y-100648344D01*
X158711952Y-100531244D01*
X158444865Y-100464977D01*
X158169983Y-100452090D01*
X157897867Y-100493078D01*
X157638977Y-100586364D01*
X157523020Y-100648344D01*
X157456040Y-100888435D01*
X156487960Y-100888435D01*
X156420980Y-100648344D01*
X156171952Y-100531244D01*
X155904865Y-100464977D01*
X155629983Y-100452090D01*
X155357867Y-100493078D01*
X155098977Y-100586364D01*
X154983020Y-100648344D01*
X154916040Y-100888435D01*
X127647700Y-100888435D01*
X127647700Y-98113000D01*
X138992928Y-98113000D01*
X139005188Y-98237482D01*
X139041498Y-98357180D01*
X139100463Y-98467494D01*
X139179815Y-98564185D01*
X139276506Y-98643537D01*
X139386820Y-98702502D01*
X139506518Y-98738812D01*
X139631000Y-98751072D01*
X140430250Y-98748000D01*
X140589000Y-98589250D01*
X140589000Y-97155000D01*
X140843000Y-97155000D01*
X140843000Y-98589250D01*
X141001750Y-98748000D01*
X141801000Y-98751072D01*
X141925482Y-98738812D01*
X142045180Y-98702502D01*
X142155494Y-98643537D01*
X142252185Y-98564185D01*
X142331537Y-98467494D01*
X142390502Y-98357180D01*
X142426812Y-98237482D01*
X142439072Y-98113000D01*
X142436000Y-97313750D01*
X142277250Y-97155000D01*
X140843000Y-97155000D01*
X140589000Y-97155000D01*
X139154750Y-97155000D01*
X138996000Y-97313750D01*
X138992928Y-98113000D01*
X127647700Y-98113000D01*
X127647700Y-95943000D01*
X138992928Y-95943000D01*
X138996000Y-96742250D01*
X139154750Y-96901000D01*
X140589000Y-96901000D01*
X140589000Y-95466750D01*
X140843000Y-95466750D01*
X140843000Y-96901000D01*
X142277250Y-96901000D01*
X142436000Y-96742250D01*
X142439072Y-95943000D01*
X142431948Y-95870665D01*
X166802001Y-95870665D01*
X166802001Y-96153335D01*
X166857148Y-96430574D01*
X166965321Y-96691727D01*
X167122364Y-96926759D01*
X167322242Y-97126637D01*
X167557274Y-97283680D01*
X167818427Y-97391853D01*
X168095666Y-97447000D01*
X168378336Y-97447000D01*
X168655575Y-97391853D01*
X168916728Y-97283680D01*
X169151760Y-97126637D01*
X169351638Y-96926759D01*
X169508681Y-96691727D01*
X169616854Y-96430574D01*
X169672001Y-96153335D01*
X169672001Y-95870665D01*
X169616854Y-95593426D01*
X169508681Y-95332273D01*
X169351638Y-95097241D01*
X169151760Y-94897363D01*
X168916728Y-94740320D01*
X168655575Y-94632147D01*
X168378336Y-94577000D01*
X168095666Y-94577000D01*
X167818427Y-94632147D01*
X167557274Y-94740320D01*
X167322242Y-94897363D01*
X167122364Y-95097241D01*
X166965321Y-95332273D01*
X166857148Y-95593426D01*
X166802001Y-95870665D01*
X142431948Y-95870665D01*
X142426812Y-95818518D01*
X142390502Y-95698820D01*
X142331537Y-95588506D01*
X142252185Y-95491815D01*
X142155494Y-95412463D01*
X142045180Y-95353498D01*
X141925482Y-95317188D01*
X141801000Y-95304928D01*
X141001750Y-95308000D01*
X140843000Y-95466750D01*
X140589000Y-95466750D01*
X140430250Y-95308000D01*
X139631000Y-95304928D01*
X139506518Y-95317188D01*
X139386820Y-95353498D01*
X139276506Y-95412463D01*
X139179815Y-95491815D01*
X139100463Y-95588506D01*
X139041498Y-95698820D01*
X139005188Y-95818518D01*
X138992928Y-95943000D01*
X127647700Y-95943000D01*
X127647700Y-94096408D01*
X154305000Y-94096408D01*
X154305000Y-94371592D01*
X154358686Y-94641490D01*
X154463995Y-94895727D01*
X154616880Y-95124535D01*
X154811465Y-95319120D01*
X155040273Y-95472005D01*
X155294510Y-95577314D01*
X155564408Y-95631000D01*
X155839592Y-95631000D01*
X156109490Y-95577314D01*
X156363727Y-95472005D01*
X156592535Y-95319120D01*
X156787120Y-95124535D01*
X156940005Y-94895727D01*
X156972000Y-94818485D01*
X157003995Y-94895727D01*
X157156880Y-95124535D01*
X157351465Y-95319120D01*
X157580273Y-95472005D01*
X157834510Y-95577314D01*
X158104408Y-95631000D01*
X158379592Y-95631000D01*
X158649490Y-95577314D01*
X158903727Y-95472005D01*
X159132535Y-95319120D01*
X159252090Y-95199565D01*
X159996040Y-95199565D01*
X160063020Y-95439656D01*
X160312048Y-95556756D01*
X160579135Y-95623023D01*
X160854017Y-95635910D01*
X161126133Y-95594922D01*
X161385023Y-95501636D01*
X161500980Y-95439656D01*
X161567960Y-95199565D01*
X160782000Y-94413605D01*
X159996040Y-95199565D01*
X159252090Y-95199565D01*
X159327120Y-95124535D01*
X159480005Y-94895727D01*
X159509692Y-94824057D01*
X159514364Y-94837023D01*
X159576344Y-94952980D01*
X159816435Y-95019960D01*
X160602395Y-94234000D01*
X160961605Y-94234000D01*
X161747565Y-95019960D01*
X161987656Y-94952980D01*
X162051485Y-94817240D01*
X162083995Y-94895727D01*
X162236880Y-95124535D01*
X162431465Y-95319120D01*
X162660273Y-95472005D01*
X162914510Y-95577314D01*
X163184408Y-95631000D01*
X163459592Y-95631000D01*
X163729490Y-95577314D01*
X163983727Y-95472005D01*
X164212535Y-95319120D01*
X164407120Y-95124535D01*
X164560005Y-94895727D01*
X164665314Y-94641490D01*
X164719000Y-94371592D01*
X164719000Y-94096408D01*
X164665314Y-93826510D01*
X164560005Y-93572273D01*
X164407120Y-93343465D01*
X164212535Y-93148880D01*
X163983727Y-92995995D01*
X163729490Y-92890686D01*
X163459592Y-92837000D01*
X163184408Y-92837000D01*
X162914510Y-92890686D01*
X162660273Y-92995995D01*
X162431465Y-93148880D01*
X162236880Y-93343465D01*
X162083995Y-93572273D01*
X162054308Y-93643943D01*
X162049636Y-93630977D01*
X161987656Y-93515020D01*
X161747565Y-93448040D01*
X160961605Y-94234000D01*
X160602395Y-94234000D01*
X159816435Y-93448040D01*
X159576344Y-93515020D01*
X159512515Y-93650760D01*
X159480005Y-93572273D01*
X159327120Y-93343465D01*
X159252090Y-93268435D01*
X159996040Y-93268435D01*
X160782000Y-94054395D01*
X161567960Y-93268435D01*
X161500980Y-93028344D01*
X161251952Y-92911244D01*
X160984865Y-92844977D01*
X160709983Y-92832090D01*
X160437867Y-92873078D01*
X160178977Y-92966364D01*
X160063020Y-93028344D01*
X159996040Y-93268435D01*
X159252090Y-93268435D01*
X159132535Y-93148880D01*
X158903727Y-92995995D01*
X158649490Y-92890686D01*
X158379592Y-92837000D01*
X158104408Y-92837000D01*
X157834510Y-92890686D01*
X157580273Y-92995995D01*
X157351465Y-93148880D01*
X157156880Y-93343465D01*
X157003995Y-93572273D01*
X156972000Y-93649515D01*
X156940005Y-93572273D01*
X156787120Y-93343465D01*
X156592535Y-93148880D01*
X156363727Y-92995995D01*
X156109490Y-92890686D01*
X155839592Y-92837000D01*
X155564408Y-92837000D01*
X155294510Y-92890686D01*
X155040273Y-92995995D01*
X154811465Y-93148880D01*
X154616880Y-93343465D01*
X154463995Y-93572273D01*
X154358686Y-93826510D01*
X154305000Y-94096408D01*
X127647700Y-94096408D01*
X127647700Y-48981030D01*
X145659028Y-48981030D01*
X145659438Y-49039733D01*
X145659028Y-49098435D01*
X145659910Y-49107435D01*
X145711727Y-49600441D01*
X145723533Y-49657957D01*
X145734531Y-49715611D01*
X145737145Y-49724268D01*
X145883734Y-50197821D01*
X145906498Y-50251973D01*
X145928474Y-50306367D01*
X145932718Y-50314348D01*
X145932720Y-50314353D01*
X145932723Y-50314357D01*
X146168497Y-50750412D01*
X146201316Y-50799069D01*
X146233467Y-50848201D01*
X146239183Y-50855209D01*
X146555167Y-51237169D01*
X146596859Y-51278572D01*
X146637896Y-51320477D01*
X146644858Y-51326237D01*
X146644863Y-51326242D01*
X146644868Y-51326246D01*
X147029020Y-51639552D01*
X147077930Y-51672048D01*
X147126353Y-51705204D01*
X147134305Y-51709504D01*
X147134313Y-51709508D01*
X147572004Y-51942232D01*
X147626289Y-51964607D01*
X147680237Y-51987729D01*
X147688875Y-51990403D01*
X148163440Y-52133682D01*
X148221025Y-52145084D01*
X148278447Y-52157290D01*
X148287440Y-52158235D01*
X148780796Y-52206609D01*
X148780809Y-52206609D01*
X148812191Y-52209700D01*
X159035809Y-52209700D01*
X159038069Y-52209477D01*
X159043993Y-52209436D01*
X159073251Y-52206361D01*
X159102668Y-52206361D01*
X159111662Y-52205416D01*
X159604293Y-52150159D01*
X159661745Y-52137947D01*
X159719302Y-52126551D01*
X159727941Y-52123877D01*
X160200457Y-51973986D01*
X160254446Y-51950846D01*
X160308689Y-51928489D01*
X160316644Y-51924188D01*
X160751049Y-51685371D01*
X160799517Y-51652185D01*
X160848381Y-51619720D01*
X160855346Y-51613958D01*
X160855351Y-51613955D01*
X160855355Y-51613951D01*
X161235094Y-51295313D01*
X161276183Y-51253354D01*
X161317823Y-51212004D01*
X161323539Y-51204996D01*
X161634158Y-50818662D01*
X161666328Y-50769502D01*
X161699129Y-50720873D01*
X161703371Y-50712896D01*
X161703376Y-50712888D01*
X161703379Y-50712880D01*
X161933041Y-50273579D01*
X161955045Y-50219117D01*
X161977781Y-50165031D01*
X161980395Y-50156374D01*
X162120357Y-49680822D01*
X162131359Y-49623153D01*
X162143162Y-49565651D01*
X162144043Y-49556664D01*
X162144045Y-49556652D01*
X162144045Y-49556641D01*
X162188972Y-49062970D01*
X162188562Y-49004268D01*
X162188972Y-48945565D01*
X162188090Y-48936565D01*
X162136273Y-48443559D01*
X162124467Y-48386043D01*
X162113469Y-48328389D01*
X162110855Y-48319732D01*
X161964266Y-47846180D01*
X161941513Y-47792052D01*
X161919526Y-47737633D01*
X161915280Y-47729648D01*
X161679503Y-47293588D01*
X161646684Y-47244931D01*
X161614533Y-47195799D01*
X161608817Y-47188791D01*
X161292833Y-46806831D01*
X161251160Y-46765448D01*
X161210105Y-46723523D01*
X161203143Y-46717764D01*
X161203137Y-46717758D01*
X161203130Y-46717754D01*
X160818980Y-46404448D01*
X160770037Y-46371930D01*
X160721646Y-46338796D01*
X160713704Y-46334502D01*
X160713692Y-46334494D01*
X160713679Y-46334489D01*
X160275996Y-46101768D01*
X160221724Y-46079399D01*
X160167764Y-46056271D01*
X160159125Y-46053597D01*
X159684561Y-45910318D01*
X159626961Y-45898913D01*
X159569553Y-45886710D01*
X159560560Y-45885765D01*
X159067205Y-45837391D01*
X159067191Y-45837391D01*
X159035809Y-45834300D01*
X148812191Y-45834300D01*
X148809931Y-45834523D01*
X148804007Y-45834564D01*
X148774749Y-45837639D01*
X148745332Y-45837639D01*
X148736338Y-45838584D01*
X148243706Y-45893841D01*
X148186248Y-45906054D01*
X148128697Y-45917449D01*
X148120069Y-45920121D01*
X148120059Y-45920123D01*
X148120050Y-45920127D01*
X147647543Y-46070014D01*
X147593570Y-46093147D01*
X147539311Y-46115511D01*
X147531356Y-46119812D01*
X147096952Y-46358628D01*
X147048491Y-46391810D01*
X146999619Y-46424280D01*
X146992656Y-46430041D01*
X146992650Y-46430045D01*
X146992645Y-46430050D01*
X146612906Y-46748687D01*
X146571801Y-46790662D01*
X146530177Y-46831996D01*
X146524461Y-46839004D01*
X146213841Y-47225338D01*
X146181670Y-47274500D01*
X146148870Y-47323128D01*
X146144625Y-47331112D01*
X145914959Y-47770422D01*
X145892960Y-47824870D01*
X145870219Y-47878969D01*
X145867605Y-47887626D01*
X145727642Y-48363178D01*
X145716634Y-48420884D01*
X145704838Y-48478349D01*
X145703957Y-48487336D01*
X145703955Y-48487348D01*
X145703955Y-48487359D01*
X145659028Y-48981030D01*
X127647700Y-48981030D01*
X127647700Y-42049700D01*
X180200301Y-42049700D01*
X180200300Y-122670000D01*
M02*
