G04 #@! TF.GenerationSoftware,KiCad,Pcbnew,5.1.0-060a0da~80~ubuntu16.04.1*
G04 #@! TF.CreationDate,2019-04-04T16:50:19+05:30*
G04 #@! TF.ProjectId,555_Badge,3535355f-4261-4646-9765-2e6b69636164,v01*
G04 #@! TF.SameCoordinates,Original*
G04 #@! TF.FileFunction,Legend,Bot*
G04 #@! TF.FilePolarity,Positive*
%FSLAX46Y46*%
G04 Gerber Fmt 4.6, Leading zero omitted, Abs format (unit mm)*
G04 Created by KiCad (PCBNEW 5.1.0-060a0da~80~ubuntu16.04.1) date 2019-04-04 16:50:19*
%MOMM*%
%LPD*%
G04 APERTURE LIST*
%ADD10C,0.508000*%
G04 APERTURE END LIST*
D10*
X162003619Y-58299047D02*
X163213142Y-58299047D01*
X163334095Y-59508571D01*
X163213142Y-59387619D01*
X162971238Y-59266666D01*
X162366476Y-59266666D01*
X162124571Y-59387619D01*
X162003619Y-59508571D01*
X161882666Y-59750476D01*
X161882666Y-60355238D01*
X162003619Y-60597142D01*
X162124571Y-60718095D01*
X162366476Y-60839047D01*
X162971238Y-60839047D01*
X163213142Y-60718095D01*
X163334095Y-60597142D01*
X159584571Y-58299047D02*
X160794095Y-58299047D01*
X160915047Y-59508571D01*
X160794095Y-59387619D01*
X160552190Y-59266666D01*
X159947428Y-59266666D01*
X159705523Y-59387619D01*
X159584571Y-59508571D01*
X159463619Y-59750476D01*
X159463619Y-60355238D01*
X159584571Y-60597142D01*
X159705523Y-60718095D01*
X159947428Y-60839047D01*
X160552190Y-60839047D01*
X160794095Y-60718095D01*
X160915047Y-60597142D01*
X157165523Y-58299047D02*
X158375047Y-58299047D01*
X158496000Y-59508571D01*
X158375047Y-59387619D01*
X158133142Y-59266666D01*
X157528380Y-59266666D01*
X157286476Y-59387619D01*
X157165523Y-59508571D01*
X157044571Y-59750476D01*
X157044571Y-60355238D01*
X157165523Y-60597142D01*
X157286476Y-60718095D01*
X157528380Y-60839047D01*
X158133142Y-60839047D01*
X158375047Y-60718095D01*
X158496000Y-60597142D01*
X153174095Y-59508571D02*
X152811238Y-59629523D01*
X152690285Y-59750476D01*
X152569333Y-59992380D01*
X152569333Y-60355238D01*
X152690285Y-60597142D01*
X152811238Y-60718095D01*
X153053142Y-60839047D01*
X154020761Y-60839047D01*
X154020761Y-58299047D01*
X153174095Y-58299047D01*
X152932190Y-58420000D01*
X152811238Y-58540952D01*
X152690285Y-58782857D01*
X152690285Y-59024761D01*
X152811238Y-59266666D01*
X152932190Y-59387619D01*
X153174095Y-59508571D01*
X154020761Y-59508571D01*
X150392190Y-60839047D02*
X150392190Y-59508571D01*
X150513142Y-59266666D01*
X150755047Y-59145714D01*
X151238857Y-59145714D01*
X151480761Y-59266666D01*
X150392190Y-60718095D02*
X150634095Y-60839047D01*
X151238857Y-60839047D01*
X151480761Y-60718095D01*
X151601714Y-60476190D01*
X151601714Y-60234285D01*
X151480761Y-59992380D01*
X151238857Y-59871428D01*
X150634095Y-59871428D01*
X150392190Y-59750476D01*
X148094095Y-60839047D02*
X148094095Y-58299047D01*
X148094095Y-60718095D02*
X148336000Y-60839047D01*
X148819809Y-60839047D01*
X149061714Y-60718095D01*
X149182666Y-60597142D01*
X149303619Y-60355238D01*
X149303619Y-59629523D01*
X149182666Y-59387619D01*
X149061714Y-59266666D01*
X148819809Y-59145714D01*
X148336000Y-59145714D01*
X148094095Y-59266666D01*
X145796000Y-59145714D02*
X145796000Y-61201904D01*
X145916952Y-61443809D01*
X146037904Y-61564761D01*
X146279809Y-61685714D01*
X146642666Y-61685714D01*
X146884571Y-61564761D01*
X145796000Y-60718095D02*
X146037904Y-60839047D01*
X146521714Y-60839047D01*
X146763619Y-60718095D01*
X146884571Y-60597142D01*
X147005523Y-60355238D01*
X147005523Y-59629523D01*
X146884571Y-59387619D01*
X146763619Y-59266666D01*
X146521714Y-59145714D01*
X146037904Y-59145714D01*
X145796000Y-59266666D01*
X143618857Y-60718095D02*
X143860761Y-60839047D01*
X144344571Y-60839047D01*
X144586476Y-60718095D01*
X144707428Y-60476190D01*
X144707428Y-59508571D01*
X144586476Y-59266666D01*
X144344571Y-59145714D01*
X143860761Y-59145714D01*
X143618857Y-59266666D01*
X143497904Y-59508571D01*
X143497904Y-59750476D01*
X144707428Y-59992380D01*
M02*
