M48
; DRILL file {KiCad 5.1.0-060a0da~80~ubuntu16.04.1} date Thu 04 Apr 2019 04:50:18 PM IST
; FORMAT={-:-/ absolute / inch / decimal}
; #@! TF.CreationDate,2019-04-04T16:50:18+05:30
; #@! TF.GenerationSoftware,Kicad,Pcbnew,5.1.0-060a0da~80~ubuntu16.04.1
; #@! TF.FileFunction,Plated,1,2,PTH
FMAT,2
INCH
T1C0.0217
T2C0.0300
T3C0.0315
T4C0.0354
T5C0.0461
T6C0.0591
%
G90
G05
T1
X6.64Y-4.78
X6.69Y-4.78
X6.74Y-4.78
T2
X6.13Y-3.71
X6.13Y-4.01
X6.23Y-3.71
X6.23Y-4.01
X6.33Y-3.71
X6.33Y-4.01
X6.43Y-3.71
X6.43Y-4.01
T3
X6.16Y-4.7814
X6.46Y-4.7814
X6.6235Y-3.98
X6.9235Y-3.98
X6.16Y-4.5581
X6.46Y-4.5581
X6.6235Y-3.78
X6.9235Y-3.78
X6.16Y-4.38
X6.46Y-4.38
X6.6216Y-4.3
X6.72Y-4.3
X6.16Y-4.2
X6.46Y-4.2
X5.64Y-4.7814
X5.94Y-4.7814
T4
X5.2431Y-4.8
X5.3416Y-4.8
X5.44Y-4.8
X6.9Y-4.42
X7.0Y-4.42
X6.9Y-4.1885
X7.0Y-4.1885
T5
X5.54Y-3.82
T6
X5.54Y-4.6074
T0
M30
